<?xml version="1.0" encoding="UTF-8" standalone="no"?><svg xmlns="http://www.w3.org/2000/svg" xmlns:xlink="http://www.w3.org/1999/xlink" contentScriptType="application/ecmascript" contentStyleType="text/css" height="815px" preserveAspectRatio="none" style="width:846px;height:815px;" version="1.1" viewBox="0 0 846 815" width="846px" zoomAndPan="magnify"><defs><filter height="300%" id="f1uyqm23g8yz6p" width="300%" x="-1" y="-1"><feGaussianBlur result="blurOut" stdDeviation="2.0"/><feColorMatrix in="blurOut" result="blurOut2" type="matrix" values="0 0 0 0 0 0 0 0 0 0 0 0 0 0 0 0 0 0 .4 0"/><feOffset dx="4.0" dy="4.0" in="blurOut2" result="blurOut3"/><feBlend in="SourceGraphic" in2="blurOut3" mode="normal"/></filter></defs><g><!--MD5=[ca98ccb027b83b29d3d8b5a0c7ab7095]
cluster com.jiro4989.tkfm--><polygon fill="#FFFFFF" filter="url(#f1uyqm23g8yz6p)" points="14,16,163,16,170,38.2969,824,38.2969,824,803,14,803,14,16" style="stroke: #000000; stroke-width: 1.5;"/><line style="stroke: #000000; stroke-width: 1.5;" x1="14" x2="170" y1="38.2969" y2="38.2969"/><text fill="#000000" font-family="sans-serif" font-size="14" font-weight="bold" lengthAdjust="spacingAndGlyphs" textLength="143" x="18" y="30.9951">com.jiro4989.tkfm</text><!--MD5=[dce4c2b5694dd28223e7b1d160ba96c4]
cluster data--><polygon fill="#FFFFFF" filter="url(#f1uyqm23g8yz6p)" points="278,502,318,502,325,524.2969,738,524.2969,738,795,278,795,278,502" style="stroke: #000000; stroke-width: 1.5;"/><line style="stroke: #000000; stroke-width: 1.5;" x1="278" x2="325" y1="524.2969" y2="524.2969"/><text fill="#000000" font-family="sans-serif" font-size="14" font-weight="bold" lengthAdjust="spacingAndGlyphs" textLength="34" x="282" y="516.9951">data</text><!--MD5=[5d4cd377749310b66bf14896f5cd8d9b]
cluster model--><polygon fill="#FFFFFF" filter="url(#f1uyqm23g8yz6p)" points="22,43,76,43,83,65.2969,816,65.2969,816,477,22,477,22,43" style="stroke: #000000; stroke-width: 1.5;"/><line style="stroke: #000000; stroke-width: 1.5;" x1="22" x2="83" y1="65.2969" y2="65.2969"/><text fill="#000000" font-family="sans-serif" font-size="14" font-weight="bold" lengthAdjust="spacingAndGlyphs" textLength="48" x="26" y="57.9951">model</text><!--MD5=[a64a835c3d62471a77f615251fdde58a]
class Position--><rect fill="#FEFECE" filter="url(#f1uyqm23g8yz6p)" height="99.2188" id="Position" style="stroke: #A80036; stroke-width: 1.5;" width="82" x="507" y="529"/><ellipse cx="522" cy="545" fill="#ADD1B2" rx="11" ry="11" style="stroke: #A80036; stroke-width: 1.0;"/><path d="M524.9688,550.6406 Q524.3906,550.9375 523.75,551.0859 Q523.1094,551.2344 522.4063,551.2344 Q519.9063,551.2344 518.5859,549.5859 Q517.2656,547.9375 517.2656,544.8125 Q517.2656,541.6875 518.5859,540.0313 Q519.9063,538.375 522.4063,538.375 Q523.1094,538.375 523.7578,538.5313 Q524.4063,538.6875 524.9688,538.9844 L524.9688,541.7031 Q524.3438,541.125 523.75,540.8516 Q523.1563,540.5781 522.5313,540.5781 Q521.1875,540.5781 520.5,541.6484 Q519.8125,542.7188 519.8125,544.8125 Q519.8125,546.9063 520.5,547.9766 Q521.1875,549.0469 522.5313,549.0469 Q523.1563,549.0469 523.75,548.7734 Q524.3438,548.5 524.9688,547.9219 L524.9688,550.6406 Z "/><text fill="#000000" font-family="sans-serif" font-size="12" lengthAdjust="spacingAndGlyphs" textLength="50" x="536" y="549.1543">Position</text><line style="stroke: #A80036; stroke-width: 1.5;" x1="508" x2="588" y1="561" y2="561"/><rect fill="none" height="6" style="stroke: #C82930; stroke-width: 1.0;" width="6" x="515" y="569"/><text fill="#000000" font-family="sans-serif" font-size="11" lengthAdjust="spacingAndGlyphs" textLength="24" x="527" y="575.2104">int x</text><rect fill="none" height="6" style="stroke: #C82930; stroke-width: 1.0;" width="6" x="515" y="581.8047"/><text fill="#000000" font-family="sans-serif" font-size="11" lengthAdjust="spacingAndGlyphs" textLength="24" x="527" y="588.0151">int y</text><line style="stroke: #A80036; stroke-width: 1.5;" x1="508" x2="588" y1="594.6094" y2="594.6094"/><ellipse cx="518" cy="605.6094" fill="#84BE84" rx="3" ry="3" style="stroke: #038048; stroke-width: 1.0;"/><text fill="#000000" font-family="sans-serif" font-size="11" lengthAdjust="spacingAndGlyphs" textLength="51" x="527" y="608.8198">int getX()</text><ellipse cx="518" cy="618.4141" fill="#84BE84" rx="3" ry="3" style="stroke: #038048; stroke-width: 1.0;"/><text fill="#000000" font-family="sans-serif" font-size="11" lengthAdjust="spacingAndGlyphs" textLength="51" x="527" y="621.6245">int getY()</text><!--MD5=[b5313cd49da22b0744b541f414f8445e]
class Rectangle--><rect fill="#FEFECE" filter="url(#f1uyqm23g8yz6p)" height="99.2188" id="Rectangle" style="stroke: #A80036; stroke-width: 1.5;" width="106" x="624" y="529"/><ellipse cx="643.95" cy="545" fill="#ADD1B2" rx="11" ry="11" style="stroke: #A80036; stroke-width: 1.0;"/><path d="M646.9188,550.6406 Q646.3406,550.9375 645.7,551.0859 Q645.0594,551.2344 644.3563,551.2344 Q641.8563,551.2344 640.5359,549.5859 Q639.2156,547.9375 639.2156,544.8125 Q639.2156,541.6875 640.5359,540.0313 Q641.8563,538.375 644.3563,538.375 Q645.0594,538.375 645.7078,538.5313 Q646.3563,538.6875 646.9188,538.9844 L646.9188,541.7031 Q646.2938,541.125 645.7,540.8516 Q645.1063,540.5781 644.4813,540.5781 Q643.1375,540.5781 642.45,541.6484 Q641.7625,542.7188 641.7625,544.8125 Q641.7625,546.9063 642.45,547.9766 Q643.1375,549.0469 644.4813,549.0469 Q645.1063,549.0469 645.7,548.7734 Q646.2938,548.5 646.9188,547.9219 L646.9188,550.6406 Z "/><text fill="#000000" font-family="sans-serif" font-size="12" lengthAdjust="spacingAndGlyphs" textLength="63" x="659.05" y="549.1543">Rectangle</text><line style="stroke: #A80036; stroke-width: 1.5;" x1="625" x2="729" y1="561" y2="561"/><rect fill="none" height="6" style="stroke: #C82930; stroke-width: 1.0;" width="6" x="632" y="569"/><text fill="#000000" font-family="sans-serif" font-size="11" lengthAdjust="spacingAndGlyphs" textLength="48" x="644" y="575.2104">int width</text><rect fill="none" height="6" style="stroke: #C82930; stroke-width: 1.0;" width="6" x="632" y="581.8047"/><text fill="#000000" font-family="sans-serif" font-size="11" lengthAdjust="spacingAndGlyphs" textLength="53" x="644" y="588.0151">int height</text><line style="stroke: #A80036; stroke-width: 1.5;" x1="625" x2="729" y1="594.6094" y2="594.6094"/><ellipse cx="635" cy="605.6094" fill="#84BE84" rx="3" ry="3" style="stroke: #038048; stroke-width: 1.0;"/><text fill="#000000" font-family="sans-serif" font-size="11" lengthAdjust="spacingAndGlyphs" textLength="74" x="644" y="608.8198">int getWidth()</text><ellipse cx="635" cy="618.4141" fill="#84BE84" rx="3" ry="3" style="stroke: #038048; stroke-width: 1.0;"/><text fill="#000000" font-family="sans-serif" font-size="11" lengthAdjust="spacingAndGlyphs" textLength="80" x="644" y="621.6245">int getHeight()</text><!--MD5=[267c091dc0601f7b2440128207609600]
class TileImage--><rect fill="#FEFECE" filter="url(#f1uyqm23g8yz6p)" height="99.2188" id="TileImage" style="stroke: #A80036; stroke-width: 1.5;" width="186" x="286" y="529"/><ellipse cx="345.25" cy="545" fill="#ADD1B2" rx="11" ry="11" style="stroke: #A80036; stroke-width: 1.0;"/><path d="M348.2188,550.6406 Q347.6406,550.9375 347,551.0859 Q346.3594,551.2344 345.6563,551.2344 Q343.1563,551.2344 341.8359,549.5859 Q340.5156,547.9375 340.5156,544.8125 Q340.5156,541.6875 341.8359,540.0313 Q343.1563,538.375 345.6563,538.375 Q346.3594,538.375 347.0078,538.5313 Q347.6563,538.6875 348.2188,538.9844 L348.2188,541.7031 Q347.5938,541.125 347,540.8516 Q346.4063,540.5781 345.7813,540.5781 Q344.4375,540.5781 343.75,541.6484 Q343.0625,542.7188 343.0625,544.8125 Q343.0625,546.9063 343.75,547.9766 Q344.4375,549.0469 345.7813,549.0469 Q346.4063,549.0469 347,548.7734 Q347.5938,548.5 348.2188,547.9219 L348.2188,550.6406 Z "/><text fill="#000000" font-family="sans-serif" font-size="12" lengthAdjust="spacingAndGlyphs" textLength="59" x="365.75" y="549.1543">TileImage</text><line style="stroke: #A80036; stroke-width: 1.5;" x1="287" x2="471" y1="561" y2="561"/><rect fill="none" height="6" style="stroke: #C82930; stroke-width: 1.0;" width="6" x="294" y="569"/><text fill="#000000" font-family="sans-serif" font-size="11" lengthAdjust="spacingAndGlyphs" textLength="74" x="306" y="575.2104">Image image</text><rect fill="none" height="6" style="stroke: #C82930; stroke-width: 1.0;" width="6" x="294" y="581.8047"/><text fill="#000000" font-family="sans-serif" font-size="11" lengthAdjust="spacingAndGlyphs" textLength="90" x="306" y="588.0151">TilePosition pos</text><line style="stroke: #A80036; stroke-width: 1.5;" x1="287" x2="471" y1="594.6094" y2="594.6094"/><ellipse cx="297" cy="605.6094" fill="#84BE84" rx="3" ry="3" style="stroke: #038048; stroke-width: 1.0;"/><text fill="#000000" font-family="sans-serif" font-size="11" lengthAdjust="spacingAndGlyphs" textLength="100" x="306" y="608.8198">Image getImage()</text><ellipse cx="297" cy="618.4141" fill="#84BE84" rx="3" ry="3" style="stroke: #038048; stroke-width: 1.0;"/><text fill="#000000" font-family="sans-serif" font-size="11" lengthAdjust="spacingAndGlyphs" textLength="160" x="306" y="621.6245">TilePosition getTilePosition()</text><!--MD5=[975af3dd17f824e608bc0868e5ce5c98]
class TilePosition--><rect fill="#FEFECE" filter="url(#f1uyqm23g8yz6p)" height="99.2188" id="TilePosition" style="stroke: #A80036; stroke-width: 1.5;" width="103" x="306.5" y="688"/><ellipse cx="321.5" cy="704" fill="#ADD1B2" rx="11" ry="11" style="stroke: #A80036; stroke-width: 1.0;"/><path d="M324.4688,709.6406 Q323.8906,709.9375 323.25,710.0859 Q322.6094,710.2344 321.9063,710.2344 Q319.4063,710.2344 318.0859,708.5859 Q316.7656,706.9375 316.7656,703.8125 Q316.7656,700.6875 318.0859,699.0313 Q319.4063,697.375 321.9063,697.375 Q322.6094,697.375 323.2578,697.5313 Q323.9063,697.6875 324.4688,697.9844 L324.4688,700.7031 Q323.8438,700.125 323.25,699.8516 Q322.6563,699.5781 322.0313,699.5781 Q320.6875,699.5781 320,700.6484 Q319.3125,701.7188 319.3125,703.8125 Q319.3125,705.9063 320,706.9766 Q320.6875,708.0469 322.0313,708.0469 Q322.6563,708.0469 323.25,707.7734 Q323.8438,707.5 324.4688,706.9219 L324.4688,709.6406 Z "/><text fill="#000000" font-family="sans-serif" font-size="12" lengthAdjust="spacingAndGlyphs" textLength="71" x="335.5" y="708.1543">TilePosition</text><line style="stroke: #A80036; stroke-width: 1.5;" x1="307.5" x2="408.5" y1="720" y2="720"/><rect fill="none" height="6" style="stroke: #C82930; stroke-width: 1.0;" width="6" x="314.5" y="728"/><text fill="#000000" font-family="sans-serif" font-size="11" lengthAdjust="spacingAndGlyphs" textLength="39" x="326.5" y="734.2104">int row</text><rect fill="none" height="6" style="stroke: #C82930; stroke-width: 1.0;" width="6" x="314.5" y="740.8047"/><text fill="#000000" font-family="sans-serif" font-size="11" lengthAdjust="spacingAndGlyphs" textLength="34" x="326.5" y="747.0151">int col</text><line style="stroke: #A80036; stroke-width: 1.5;" x1="307.5" x2="408.5" y1="753.6094" y2="753.6094"/><ellipse cx="317.5" cy="764.6094" fill="#84BE84" rx="3" ry="3" style="stroke: #038048; stroke-width: 1.0;"/><text fill="#000000" font-family="sans-serif" font-size="11" lengthAdjust="spacingAndGlyphs" textLength="67" x="326.5" y="767.8198">int getRow()</text><ellipse cx="317.5" cy="777.4141" fill="#84BE84" rx="3" ry="3" style="stroke: #038048; stroke-width: 1.0;"/><text fill="#000000" font-family="sans-serif" font-size="11" lengthAdjust="spacingAndGlyphs" textLength="62" x="326.5" y="780.6245">int getCol()</text><!--MD5=[ffeadfd16f5655fcc99e9f2717421624]
class ImageFileModel--><rect fill="#FEFECE" filter="url(#f1uyqm23g8yz6p)" height="86.4141" id="ImageFileModel" style="stroke: #A80036; stroke-width: 1.5;" width="142" x="371" y="344.5"/><ellipse cx="392.3" cy="360.5" fill="#ADD1B2" rx="11" ry="11" style="stroke: #A80036; stroke-width: 1.0;"/><path d="M395.2688,366.1406 Q394.6906,366.4375 394.05,366.5859 Q393.4094,366.7344 392.7063,366.7344 Q390.2063,366.7344 388.8859,365.0859 Q387.5656,363.4375 387.5656,360.3125 Q387.5656,357.1875 388.8859,355.5313 Q390.2063,353.875 392.7063,353.875 Q393.4094,353.875 394.0578,354.0313 Q394.7063,354.1875 395.2688,354.4844 L395.2688,357.2031 Q394.6438,356.625 394.05,356.3516 Q393.4563,356.0781 392.8313,356.0781 Q391.4875,356.0781 390.8,357.1484 Q390.1125,358.2188 390.1125,360.3125 Q390.1125,362.4063 390.8,363.4766 Q391.4875,364.5469 392.8313,364.5469 Q393.4563,364.5469 394.05,364.2734 Q394.6438,364 395.2688,363.4219 L395.2688,366.1406 Z "/><text fill="#000000" font-family="sans-serif" font-size="12" lengthAdjust="spacingAndGlyphs" textLength="96" x="407.7" y="364.6543">ImageFileModel</text><line style="stroke: #A80036; stroke-width: 1.5;" x1="372" x2="512" y1="376.5" y2="376.5"/><rect fill="none" height="6" style="stroke: #C82930; stroke-width: 1.0;" width="6" x="379" y="384.5"/><text fill="#000000" font-family="sans-serif" font-size="11" lengthAdjust="spacingAndGlyphs" textLength="108" x="391" y="390.7104">boolean isSelected</text><line style="stroke: #A80036; stroke-width: 1.5;" x1="372" x2="512" y1="397.3047" y2="397.3047"/><ellipse cx="382" cy="408.3047" fill="#84BE84" rx="3" ry="3" style="stroke: #038048; stroke-width: 1.0;"/><text fill="#000000" font-family="sans-serif" font-size="11" lengthAdjust="spacingAndGlyphs" textLength="116" x="391" y="411.5151">boolean isSelected()</text><ellipse cx="382" cy="421.1094" fill="#84BE84" rx="3" ry="3" style="stroke: #038048; stroke-width: 1.0;"/><text fill="#000000" font-family="sans-serif" font-size="11" lengthAdjust="spacingAndGlyphs" textLength="102" x="391" y="424.3198">boolean isImage()</text><!--MD5=[ecd82eccdb86bf450d7d519869be073b]
class ImageFilesModel--><rect fill="#FEFECE" filter="url(#f1uyqm23g8yz6p)" height="176.0469" id="ImageFilesModel" style="stroke: #A80036; stroke-width: 1.5;" width="324" x="275" y="70"/><ellipse cx="381.25" cy="86" fill="#ADD1B2" rx="11" ry="11" style="stroke: #A80036; stroke-width: 1.0;"/><path d="M384.2188,91.6406 Q383.6406,91.9375 383,92.0859 Q382.3594,92.2344 381.6563,92.2344 Q379.1563,92.2344 377.8359,90.5859 Q376.5156,88.9375 376.5156,85.8125 Q376.5156,82.6875 377.8359,81.0313 Q379.1563,79.375 381.6563,79.375 Q382.3594,79.375 383.0078,79.5313 Q383.6563,79.6875 384.2188,79.9844 L384.2188,82.7031 Q383.5938,82.125 383,81.8516 Q382.4063,81.5781 381.7813,81.5781 Q380.4375,81.5781 379.75,82.6484 Q379.0625,83.7188 379.0625,85.8125 Q379.0625,87.9063 379.75,88.9766 Q380.4375,90.0469 381.7813,90.0469 Q382.4063,90.0469 383,89.7734 Q383.5938,89.5 384.2188,88.9219 L384.2188,91.6406 Z "/><text fill="#000000" font-family="sans-serif" font-size="12" lengthAdjust="spacingAndGlyphs" textLength="103" x="401.75" y="90.1543">ImageFilesModel</text><line style="stroke: #A80036; stroke-width: 1.5;" x1="276" x2="598" y1="102" y2="102"/><rect fill="none" height="6" style="stroke: #C82930; stroke-width: 1.0;" width="6" x="283" y="110"/><text fill="#000000" font-family="sans-serif" font-size="11" lengthAdjust="spacingAndGlyphs" textLength="153" x="295" y="116.2104">List&lt;ImageFileModel&gt; files</text><rect fill="none" height="6" style="stroke: #C82930; stroke-width: 1.0;" width="6" x="283" y="122.8047"/><text fill="#000000" font-family="sans-serif" font-size="11" lengthAdjust="spacingAndGlyphs" textLength="87" x="295" y="129.0151">int selectedPos</text><line style="stroke: #A80036; stroke-width: 1.5;" x1="276" x2="598" y1="135.6094" y2="135.6094"/><ellipse cx="286" cy="146.6094" fill="#84BE84" rx="3" ry="3" style="stroke: #038048; stroke-width: 1.0;"/><text fill="#000000" font-family="sans-serif" font-size="11" lengthAdjust="spacingAndGlyphs" textLength="143" x="295" y="149.8198">void add(ImageFileModel)</text><ellipse cx="286" cy="159.4141" fill="#84BE84" rx="3" ry="3" style="stroke: #038048; stroke-width: 1.0;"/><text fill="#000000" font-family="sans-serif" font-size="11" lengthAdjust="spacingAndGlyphs" textLength="92" x="295" y="162.6245">void remove(int)</text><ellipse cx="286" cy="172.2188" fill="#84BE84" rx="3" ry="3" style="stroke: #038048; stroke-width: 1.0;"/><text fill="#000000" font-family="sans-serif" font-size="11" lengthAdjust="spacingAndGlyphs" textLength="63" x="295" y="175.4292">void clear()</text><ellipse cx="286" cy="185.0234" fill="#84BE84" rx="3" ry="3" style="stroke: #038048; stroke-width: 1.0;"/><text fill="#000000" font-family="sans-serif" font-size="11" lengthAdjust="spacingAndGlyphs" textLength="83" x="295" y="188.2339">void select(int)</text><ellipse cx="286" cy="197.8281" fill="#84BE84" rx="3" ry="3" style="stroke: #038048; stroke-width: 1.0;"/><text fill="#000000" font-family="sans-serif" font-size="11" lengthAdjust="spacingAndGlyphs" textLength="94" x="295" y="201.0386">void selectFirst()</text><ellipse cx="286" cy="210.6328" fill="#84BE84" rx="3" ry="3" style="stroke: #038048; stroke-width: 1.0;"/><text fill="#000000" font-family="sans-serif" font-size="11" lengthAdjust="spacingAndGlyphs" textLength="94" x="295" y="213.8433">void selectNext()</text><ellipse cx="286" cy="223.4375" fill="#84BE84" rx="3" ry="3" style="stroke: #038048; stroke-width: 1.0;"/><text fill="#000000" font-family="sans-serif" font-size="11" lengthAdjust="spacingAndGlyphs" textLength="94" x="295" y="226.6479">void selectPrev()</text><ellipse cx="286" cy="236.2422" fill="#84BE84" rx="3" ry="3" style="stroke: #038048; stroke-width: 1.0;"/><text fill="#000000" font-family="sans-serif" font-size="11" lengthAdjust="spacingAndGlyphs" textLength="298" x="295" y="239.4526">List&lt;ImageFileModel&gt; getSelectedImageFilesModel()</text><!--MD5=[fe5c13e661ec308c9a0439e22e22ba7b]
class ImageModel--><rect fill="#FEFECE" filter="url(#f1uyqm23g8yz6p)" height="99.2188" id="ImageModel" style="stroke: #A80036; stroke-width: 1.5;" width="174" x="634" y="108.5"/><ellipse cx="679.25" cy="124.5" fill="#ADD1B2" rx="11" ry="11" style="stroke: #A80036; stroke-width: 1.0;"/><path d="M682.2188,130.1406 Q681.6406,130.4375 681,130.5859 Q680.3594,130.7344 679.6563,130.7344 Q677.1563,130.7344 675.8359,129.0859 Q674.5156,127.4375 674.5156,124.3125 Q674.5156,121.1875 675.8359,119.5313 Q677.1563,117.875 679.6563,117.875 Q680.3594,117.875 681.0078,118.0313 Q681.6563,118.1875 682.2188,118.4844 L682.2188,121.2031 Q681.5938,120.625 681,120.3516 Q680.4063,120.0781 679.7813,120.0781 Q678.4375,120.0781 677.75,121.1484 Q677.0625,122.2188 677.0625,124.3125 Q677.0625,126.4063 677.75,127.4766 Q678.4375,128.5469 679.7813,128.5469 Q680.4063,128.5469 681,128.2734 Q681.5938,128 682.2188,127.4219 L682.2188,130.1406 Z "/><text fill="#000000" font-family="sans-serif" font-size="12" lengthAdjust="spacingAndGlyphs" textLength="75" x="699.75" y="128.6543">ImageModel</text><line style="stroke: #A80036; stroke-width: 1.5;" x1="635" x2="807" y1="140.5" y2="140.5"/><rect fill="none" height="6" style="stroke: #C82930; stroke-width: 1.0;" width="6" x="642" y="148.5"/><text fill="#000000" font-family="sans-serif" font-size="11" lengthAdjust="spacingAndGlyphs" textLength="74" x="654" y="154.7104">Image image</text><rect fill="none" height="6" style="stroke: #C82930; stroke-width: 1.0;" width="6" x="642" y="161.3047"/><text fill="#000000" font-family="sans-serif" font-size="11" lengthAdjust="spacingAndGlyphs" textLength="95" x="654" y="167.5151">Position cropPos</text><rect fill="none" height="6" style="stroke: #C82930; stroke-width: 1.0;" width="6" x="642" y="174.1094"/><text fill="#000000" font-family="sans-serif" font-size="11" lengthAdjust="spacingAndGlyphs" textLength="108" x="654" y="180.3198">Rectangle cropRect</text><line style="stroke: #A80036; stroke-width: 1.5;" x1="635" x2="807" y1="186.9141" y2="186.9141"/><ellipse cx="645" cy="197.9141" fill="#84BE84" rx="3" ry="3" style="stroke: #038048; stroke-width: 1.0;"/><text fill="#000000" font-family="sans-serif" font-size="11" lengthAdjust="spacingAndGlyphs" textLength="148" x="654" y="201.1245">Image getCroppedImage()</text><!--MD5=[d933e9e11ddc0bc3ed8190fc980a7fd4]
class ImagesModel--><rect fill="#FEFECE" filter="url(#f1uyqm23g8yz6p)" height="163.2422" id="ImagesModel" style="stroke: #A80036; stroke-width: 1.5;" width="229" x="106.5" y="306"/><ellipse cx="175.75" cy="322" fill="#ADD1B2" rx="11" ry="11" style="stroke: #A80036; stroke-width: 1.0;"/><path d="M178.7188,327.6406 Q178.1406,327.9375 177.5,328.0859 Q176.8594,328.2344 176.1563,328.2344 Q173.6563,328.2344 172.3359,326.5859 Q171.0156,324.9375 171.0156,321.8125 Q171.0156,318.6875 172.3359,317.0313 Q173.6563,315.375 176.1563,315.375 Q176.8594,315.375 177.5078,315.5313 Q178.1563,315.6875 178.7188,315.9844 L178.7188,318.7031 Q178.0938,318.125 177.5,317.8516 Q176.9063,317.5781 176.2813,317.5781 Q174.9375,317.5781 174.25,318.6484 Q173.5625,319.7188 173.5625,321.8125 Q173.5625,323.9063 174.25,324.9766 Q174.9375,326.0469 176.2813,326.0469 Q176.9063,326.0469 177.5,325.7734 Q178.0938,325.5 178.7188,324.9219 L178.7188,327.6406 Z "/><text fill="#000000" font-family="sans-serif" font-size="12" lengthAdjust="spacingAndGlyphs" textLength="82" x="196.25" y="326.1543">ImagesModel</text><line style="stroke: #A80036; stroke-width: 1.5;" x1="107.5" x2="334.5" y1="338" y2="338"/><rect fill="none" height="6" style="stroke: #C82930; stroke-width: 1.0;" width="6" x="114.5" y="346"/><text fill="#000000" font-family="sans-serif" font-size="11" lengthAdjust="spacingAndGlyphs" textLength="139" x="126.5" y="352.2104">List&lt;TileImage&gt; images</text><rect fill="none" height="6" style="stroke: #C82930; stroke-width: 1.0;" width="6" x="114.5" y="358.8047"/><text fill="#000000" font-family="sans-serif" font-size="11" lengthAdjust="spacingAndGlyphs" textLength="72" x="126.5" y="365.0151">int rowCount</text><rect fill="none" height="6" style="stroke: #C82930; stroke-width: 1.0;" width="6" x="114.5" y="371.6094"/><text fill="#000000" font-family="sans-serif" font-size="11" lengthAdjust="spacingAndGlyphs" textLength="67" x="126.5" y="377.8198">int colCount</text><line style="stroke: #A80036; stroke-width: 1.5;" x1="107.5" x2="334.5" y1="384.4141" y2="384.4141"/><ellipse cx="117.5" cy="395.4141" fill="#84BE84" rx="3" ry="3" style="stroke: #038048; stroke-width: 1.0;"/><text fill="#000000" font-family="sans-serif" font-size="11" lengthAdjust="spacingAndGlyphs" textLength="203" x="126.5" y="398.6245">void swap(TilePosition, TilePosition)</text><ellipse cx="117.5" cy="408.2188" fill="#84BE84" rx="3" ry="3" style="stroke: #038048; stroke-width: 1.0;"/><text fill="#000000" font-family="sans-serif" font-size="11" lengthAdjust="spacingAndGlyphs" textLength="143" x="126.5" y="411.4292">void remove(TilePosition)</text><ellipse cx="117.5" cy="421.0234" fill="#84BE84" rx="3" ry="3" style="stroke: #038048; stroke-width: 1.0;"/><text fill="#000000" font-family="sans-serif" font-size="11" lengthAdjust="spacingAndGlyphs" textLength="63" x="126.5" y="424.2339">void clear()</text><polygon fill="#4177AF" points="117.5,429.8281,113.5,435.8281,121.5,435.8281" style="stroke: #1963A0; stroke-width: 1.0;"/><text fill="#000000" font-family="sans-serif" font-size="11" lengthAdjust="spacingAndGlyphs" textLength="86" x="126.5" y="437.0386">int getImages()</text><polygon fill="#4177AF" points="117.5,442.6328,113.5,448.6328,121.5,448.6328" style="stroke: #1963A0; stroke-width: 1.0;"/><text fill="#000000" font-family="sans-serif" font-size="11" lengthAdjust="spacingAndGlyphs" textLength="100" x="126.5" y="449.8433">int getRowCount()</text><polygon fill="#4177AF" points="117.5,455.4375,113.5,461.4375,121.5,461.4375" style="stroke: #1963A0; stroke-width: 1.0;"/><text fill="#000000" font-family="sans-serif" font-size="11" lengthAdjust="spacingAndGlyphs" textLength="95" x="126.5" y="462.6479">int getColCount()</text><!--MD5=[269cc829c2c5aad567ad5a7d66dd80e2]
class ImageIOModel--><rect fill="#FEFECE" filter="url(#f1uyqm23g8yz6p)" height="73.6094" id="ImageIOModel" style="stroke: #A80036; stroke-width: 1.5;" width="210" x="30" y="121"/><ellipse cx="87.25" cy="137" fill="#ADD1B2" rx="11" ry="11" style="stroke: #A80036; stroke-width: 1.0;"/><path d="M90.2188,142.6406 Q89.6406,142.9375 89,143.0859 Q88.3594,143.2344 87.6563,143.2344 Q85.1563,143.2344 83.8359,141.5859 Q82.5156,139.9375 82.5156,136.8125 Q82.5156,133.6875 83.8359,132.0313 Q85.1563,130.375 87.6563,130.375 Q88.3594,130.375 89.0078,130.5313 Q89.6563,130.6875 90.2188,130.9844 L90.2188,133.7031 Q89.5938,133.125 89,132.8516 Q88.4063,132.5781 87.7813,132.5781 Q86.4375,132.5781 85.75,133.6484 Q85.0625,134.7188 85.0625,136.8125 Q85.0625,138.9063 85.75,139.9766 Q86.4375,141.0469 87.7813,141.0469 Q88.4063,141.0469 89,140.7734 Q89.5938,140.5 90.2188,139.9219 L90.2188,142.6406 Z "/><text fill="#000000" font-family="sans-serif" font-size="12" lengthAdjust="spacingAndGlyphs" textLength="87" x="107.75" y="141.1543">ImageIOModel</text><line style="stroke: #A80036; stroke-width: 1.5;" x1="31" x2="239" y1="153" y2="153"/><line style="stroke: #A80036; stroke-width: 1.5;" x1="31" x2="239" y1="161" y2="161"/><ellipse cx="41" cy="172" fill="#84BE84" rx="3" ry="3" style="stroke: #038048; stroke-width: 1.0;"/><text fill="#000000" font-family="sans-serif" font-size="11" lengthAdjust="spacingAndGlyphs" textLength="184" x="50" y="175.2104">void writeFile(File, ImagesModel)</text><rect fill="#F24D5C" height="6" style="stroke: #C82930; stroke-width: 1.0;" width="6" x="38" y="181.8047"/><text fill="#000000" font-family="sans-serif" font-size="11" lengthAdjust="spacingAndGlyphs" textLength="160" x="50" y="188.0151">Image format(ImagesModel)</text><!--MD5=[16b31af54ca0df8392e7e88c5e7c7bcb]
reverse link ImageFilesModel to ImageFileModel--><path d="M439.2051,259.2121 C439.8551,289.0484 440.5321,320.1228 441.057,344.2148 " fill="none" id="ImageFilesModel&lt;-ImageFileModel" style="stroke: #A80036; stroke-width: 1.0;"/><polygon fill="#A80036" points="438.9188,246.0743,435.0505,252.16,439.1803,258.0715,443.0486,251.9857,438.9188,246.0743" style="stroke: #A80036; stroke-width: 1.0;"/><!--MD5=[b851f462744f80fc923030ded38e5e51]
reverse link ImageModel to Position--><path d="M695.482,220.0249 C660.9941,303.8525 600.1838,451.6602 568.498,528.6768 " fill="none" id="ImageModel&lt;-Position" style="stroke: #A80036; stroke-width: 1.0;"/><polygon fill="#A80036" points="700.4753,207.8881,694.4933,211.915,695.9097,218.9856,701.8917,214.9587,700.4753,207.8881" style="stroke: #A80036; stroke-width: 1.0;"/><!--MD5=[d08e47f2d9ddc27437d03c7c1129c55c]
reverse link ImageModel to Rectangle--><path d="M714.4016,221.0598 C705.6116,305.0641 690.2391,451.9761 682.2134,528.6768 " fill="none" id="ImageModel&lt;-Rectangle" style="stroke: #A80036; stroke-width: 1.0;"/><polygon fill="#A80036" points="715.7798,207.8881,711.1771,213.4392,714.5309,219.8229,719.1336,214.2718,715.7798,207.8881" style="stroke: #A80036; stroke-width: 1.0;"/><!--MD5=[fb1b2928966092a9cb68d31aa7b4ce51]
reverse link ImagesModel to TileImage--><path d="M296.8061,479.139 C311.0244,496.327 325.3809,513.682 338.0293,528.9721 " fill="none" id="ImagesModel&lt;-TileImage" style="stroke: #A80036; stroke-width: 1.0;"/><polygon fill="#A80036" points="288.4645,469.0552,289.2068,476.228,296.1134,478.3015,295.3711,471.1287,288.4645,469.0552" style="stroke: #A80036; stroke-width: 1.0;"/><!--MD5=[34f3b26a5ddb7c198467f1aacae89776]
link ImagesModel to TilePosition--><path d="M227.3842,469.0896 C233.5199,517.1507 245.5278,578.1085 269,628 C278.2776,647.7201 291.8547,666.9576 305.6228,683.6667 " fill="none" id="ImagesModel-&gt;TilePosition" style="stroke: #A80036; stroke-width: 1.0; stroke-dasharray: 7.0,7.0;"/><polygon fill="#A80036" points="309.1248,687.859,306.4248,678.3875,305.9193,684.0217,300.2851,683.5162,309.1248,687.859" style="stroke: #A80036; stroke-width: 1.0;"/><!--MD5=[fdb4528cb0c014bb650da008c41c2791]
reverse link TileImage to TilePosition--><path d="M370.6674,641.59 C368.6386,656.9507 366.497,673.1659 364.5635,687.8046 " fill="none" id="TileImage&lt;-TilePosition" style="stroke: #A80036; stroke-width: 1.0;"/><polygon fill="#A80036" points="372.4131,628.3723,367.6619,633.7969,370.8418,640.269,375.593,634.8444,372.4131,628.3723" style="stroke: #A80036; stroke-width: 1.0;"/><!--MD5=[4ffc5a17b3cd156714dfa1daed7e9426]
link ImageIOModel to ImagesModel--><path d="M148.913,195.1282 C159.6046,223.6598 174.8126,264.2441 188.5064,300.7873 " fill="none" id="ImageIOModel-&gt;ImagesModel" style="stroke: #A80036; stroke-width: 1.0; stroke-dasharray: 7.0,7.0;"/><polygon fill="#A80036" points="190.3411,305.6836,190.9286,295.8523,188.5866,301.0015,183.4373,298.6595,190.3411,305.6836" style="stroke: #A80036; stroke-width: 1.0;"/><!--MD5=[3f14d9c85cc856613c51553fdaf17ae4]
@startuml
package com.jiro4989.tkfm {

  package data {
    class Position {
      -int x
      -int y
      +int getX()
      +int getY()
    }
    
    class Rectangle {
      -int width
      -int height
      +int getWidth()
      +int getHeight()
    }
      
    class TileImage {
      -Image image
      -TilePosition pos
      +Image getImage()
      +TilePosition getTilePosition()
    }
    
    class TilePosition {
      -int row
      -int col
      
      +int getRow()
      +int getCol()
    }
  }
  
  package model {
    class ImageFileModel {
      -boolean isSelected
      
      +boolean isSelected()
      +boolean isImage()
    }
    
    class ImageFilesModel {
      -List<ImageFileModel> files
      -int selectedPos
      
      +void add(ImageFileModel)
      +void remove(int)
      +void clear()
      +void select(int)
      +void selectFirst()
      +void selectNext()
      +void selectPrev()
      +List<ImageFileModel> getSelectedImageFilesModel()
    }
    
    class ImageModel {
      -Image image
      -Position cropPos
      -Rectangle cropRect
      +Image getCroppedImage()
    }
    
    class ImagesModel {
      -List<TileImage> images
      -int rowCount
      -int colCount
      
      +void swap(TilePosition, TilePosition)
      +void remove(TilePosition)
      +void clear()
      ~int getImages()
      ~int getRowCount()
      ~int getColCount()
    }
  
    class ImageIOModel {
      +void writeFile(File, ImagesModel)
      -Image format(ImagesModel)
    }
  }
}

ImageFilesModel *- - ImageFileModel
ImageModel *- - Position
ImageModel *- - Rectangle
ImagesModel *- - TileImage
ImagesModel ..> TilePosition
TileImage *- - TilePosition
ImageIOModel ..> ImagesModel
@enduml

PlantUML version 1.2019.12(Sun Nov 03 10:24:54 UTC 2019)
(GPL source distribution)
Java Runtime: OpenJDK Runtime Environment
JVM: OpenJDK 64-Bit Server VM
Java Version: 1.8.0_232-heroku-b09
Operating System: Linux
Default Encoding: UTF-8
Language: en
Country: US
--></g></svg>