<?xml version="1.0" encoding="UTF-8" standalone="no"?><svg xmlns="http://www.w3.org/2000/svg" xmlns:xlink="http://www.w3.org/1999/xlink" contentScriptType="application/ecmascript" contentStyleType="text/css" height="1310px" preserveAspectRatio="none" style="width:855px;height:1310px;" version="1.1" viewBox="0 0 855 1310" width="855px" zoomAndPan="magnify"><defs><filter height="300%" id="f1f5x6x1o300vw" width="300%" x="-1" y="-1"><feGaussianBlur result="blurOut" stdDeviation="2.0"/><feColorMatrix in="blurOut" result="blurOut2" type="matrix" values="0 0 0 0 0 0 0 0 0 0 0 0 0 0 0 0 0 0 .4 0"/><feOffset dx="4.0" dy="4.0" in="blurOut2" result="blurOut3"/><feBlend in="SourceGraphic" in2="blurOut3" mode="normal"/></filter></defs><g><!--MD5=[ca98ccb027b83b29d3d8b5a0c7ab7095]
cluster com.jiro4989.tkfm--><polygon fill="#FFFFFF" filter="url(#f1f5x6x1o300vw)" points="14,16,163,16,170,38.2969,833,38.2969,833,1298,14,1298,14,16" style="stroke: #000000; stroke-width: 1.5;"/><line style="stroke: #000000; stroke-width: 1.5;" x1="14" x2="170" y1="38.2969" y2="38.2969"/><text fill="#000000" font-family="sans-serif" font-size="14" font-weight="bold" lengthAdjust="spacingAndGlyphs" textLength="143" x="18" y="30.9951">com.jiro4989.tkfm</text><!--MD5=[10ea673caf457862023e152271927b45]
cluster controller--><polygon fill="#FFFFFF" filter="url(#f1f5x6x1o300vw)" points="413,137,496,137,503,159.2969,597,159.2969,597,233,413,233,413,137" style="stroke: #000000; stroke-width: 1.5;"/><line style="stroke: #000000; stroke-width: 1.5;" x1="413" x2="503" y1="159.2969" y2="159.2969"/><text fill="#000000" font-family="sans-serif" font-size="14" font-weight="bold" lengthAdjust="spacingAndGlyphs" textLength="77" x="417" y="151.9951">controller</text><!--MD5=[7579d5565d2521d5936cec86ed3dadee]
cluster service--><polygon fill="#FFFFFF" filter="url(#f1f5x6x1o300vw)" points="381,258,445,258,452,280.2969,629,280.2969,629,379,381,379,381,258" style="stroke: #000000; stroke-width: 1.5;"/><line style="stroke: #000000; stroke-width: 1.5;" x1="381" x2="452" y1="280.2969" y2="280.2969"/><text fill="#000000" font-family="sans-serif" font-size="14" font-weight="bold" lengthAdjust="spacingAndGlyphs" textLength="58" x="385" y="272.9951">service</text><!--MD5=[dce4c2b5694dd28223e7b1d160ba96c4]
cluster data--><polygon fill="#FFFFFF" filter="url(#f1f5x6x1o300vw)" points="253,946,293,946,300,968.2969,769,968.2969,769,1290,253,1290,253,946" style="stroke: #000000; stroke-width: 1.5;"/><line style="stroke: #000000; stroke-width: 1.5;" x1="253" x2="300" y1="968.2969" y2="968.2969"/><text fill="#000000" font-family="sans-serif" font-size="14" font-weight="bold" lengthAdjust="spacingAndGlyphs" textLength="34" x="257" y="960.9951">data</text><!--MD5=[5d4cd377749310b66bf14896f5cd8d9b]
cluster model--><polygon fill="#FFFFFF" filter="url(#f1f5x6x1o300vw)" points="22,538,76,538,83,560.2969,825,560.2969,825,921,22,921,22,538" style="stroke: #000000; stroke-width: 1.5;"/><line style="stroke: #000000; stroke-width: 1.5;" x1="22" x2="83" y1="560.2969" y2="560.2969"/><text fill="#000000" font-family="sans-serif" font-size="14" font-weight="bold" lengthAdjust="spacingAndGlyphs" textLength="48" x="26" y="552.9951">model</text><!--MD5=[3e81cc6ee7da4fa8b6adc12b329096f6]
cluster util--><polygon fill="#FFFFFF" filter="url(#f1f5x6x1o300vw)" points="573,404,603,404,610,426.2969,819,426.2969,819,513,573,513,573,404" style="stroke: #000000; stroke-width: 1.5;"/><line style="stroke: #000000; stroke-width: 1.5;" x1="573" x2="610" y1="426.2969" y2="426.2969"/><text fill="#000000" font-family="sans-serif" font-size="14" font-weight="bold" lengthAdjust="spacingAndGlyphs" textLength="24" x="577" y="418.9951">util</text><!--MD5=[84718776d214be480e4c259efcb737fc]
class Main--><rect fill="#FEFECE" filter="url(#f1f5x6x1o300vw)" height="60.8047" id="Main" style="stroke: #A80036; stroke-width: 1.5;" width="196" x="407" y="43"/><ellipse cx="486.25" cy="59" fill="#ADD1B2" rx="11" ry="11" style="stroke: #A80036; stroke-width: 1.0;"/><path d="M489.2188,64.6406 Q488.6406,64.9375 488,65.0859 Q487.3594,65.2344 486.6563,65.2344 Q484.1563,65.2344 482.8359,63.5859 Q481.5156,61.9375 481.5156,58.8125 Q481.5156,55.6875 482.8359,54.0313 Q484.1563,52.375 486.6563,52.375 Q487.3594,52.375 488.0078,52.5313 Q488.6563,52.6875 489.2188,52.9844 L489.2188,55.7031 Q488.5938,55.125 488,54.8516 Q487.4063,54.5781 486.7813,54.5781 Q485.4375,54.5781 484.75,55.6484 Q484.0625,56.7188 484.0625,58.8125 Q484.0625,60.9063 484.75,61.9766 Q485.4375,63.0469 486.7813,63.0469 Q487.4063,63.0469 488,62.7734 Q488.5938,62.5 489.2188,61.9219 L489.2188,64.6406 Z "/><text fill="#000000" font-family="sans-serif" font-size="12" lengthAdjust="spacingAndGlyphs" textLength="29" x="506.75" y="63.1543">Main</text><line style="stroke: #A80036; stroke-width: 1.5;" x1="408" x2="602" y1="75" y2="75"/><rect fill="none" height="6" style="stroke: #C82930; stroke-width: 1.0;" width="6" x="415" y="83"/><text fill="#000000" font-family="sans-serif" font-size="11" lengthAdjust="spacingAndGlyphs" textLength="170" x="427" y="89.2104">MainController mainController</text><line style="stroke: #A80036; stroke-width: 1.5;" x1="408" x2="602" y1="95.8047" y2="95.8047"/><!--MD5=[0278646e5a3f51edb25d463fe8c5bfab]
class MainController--><rect fill="#FEFECE" filter="url(#f1f5x6x1o300vw)" height="60.8047" id="MainController" style="stroke: #A80036; stroke-width: 1.5;" width="168" x="421" y="164"/><ellipse cx="456.7" cy="180" fill="#ADD1B2" rx="11" ry="11" style="stroke: #A80036; stroke-width: 1.0;"/><path d="M459.6688,185.6406 Q459.0906,185.9375 458.45,186.0859 Q457.8094,186.2344 457.1063,186.2344 Q454.6063,186.2344 453.2859,184.5859 Q451.9656,182.9375 451.9656,179.8125 Q451.9656,176.6875 453.2859,175.0313 Q454.6063,173.375 457.1063,173.375 Q457.8094,173.375 458.4578,173.5313 Q459.1063,173.6875 459.6688,173.9844 L459.6688,176.7031 Q459.0438,176.125 458.45,175.8516 Q457.8563,175.5781 457.2313,175.5781 Q455.8875,175.5781 455.2,176.6484 Q454.5125,177.7188 454.5125,179.8125 Q454.5125,181.9063 455.2,182.9766 Q455.8875,184.0469 457.2313,184.0469 Q457.8563,184.0469 458.45,183.7734 Q459.0438,183.5 459.6688,182.9219 L459.6688,185.6406 Z "/><text fill="#000000" font-family="sans-serif" font-size="12" lengthAdjust="spacingAndGlyphs" textLength="90" x="475.3" y="184.1543">MainController</text><line style="stroke: #A80036; stroke-width: 1.5;" x1="422" x2="588" y1="196" y2="196"/><rect fill="none" height="6" style="stroke: #C82930; stroke-width: 1.0;" width="6" x="429" y="204"/><text fill="#000000" font-family="sans-serif" font-size="11" lengthAdjust="spacingAndGlyphs" textLength="142" x="441" y="210.2104">MainService mainService</text><line style="stroke: #A80036; stroke-width: 1.5;" x1="422" x2="588" y1="216.8047" y2="216.8047"/><!--MD5=[982b7704c37f834310f46f819c83e8df]
class MainService--><rect fill="#FEFECE" filter="url(#f1f5x6x1o300vw)" height="86.4141" id="MainService" style="stroke: #A80036; stroke-width: 1.5;" width="233" x="388.5" y="285"/><ellipse cx="463.75" cy="301" fill="#ADD1B2" rx="11" ry="11" style="stroke: #A80036; stroke-width: 1.0;"/><path d="M466.7188,306.6406 Q466.1406,306.9375 465.5,307.0859 Q464.8594,307.2344 464.1563,307.2344 Q461.6563,307.2344 460.3359,305.5859 Q459.0156,303.9375 459.0156,300.8125 Q459.0156,297.6875 460.3359,296.0313 Q461.6563,294.375 464.1563,294.375 Q464.8594,294.375 465.5078,294.5313 Q466.1563,294.6875 466.7188,294.9844 L466.7188,297.7031 Q466.0938,297.125 465.5,296.8516 Q464.9063,296.5781 464.2813,296.5781 Q462.9375,296.5781 462.25,297.6484 Q461.5625,298.7188 461.5625,300.8125 Q461.5625,302.9063 462.25,303.9766 Q462.9375,305.0469 464.2813,305.0469 Q464.9063,305.0469 465.5,304.7734 Q466.0938,304.5 466.7188,303.9219 L466.7188,306.6406 Z "/><text fill="#000000" font-family="sans-serif" font-size="12" lengthAdjust="spacingAndGlyphs" textLength="74" x="484.25" y="305.1543">MainService</text><line style="stroke: #A80036; stroke-width: 1.5;" x1="389.5" x2="620.5" y1="317" y2="317"/><rect fill="none" height="6" style="stroke: #C82930; stroke-width: 1.0;" width="6" x="396.5" y="325"/><text fill="#000000" font-family="sans-serif" font-size="11" lengthAdjust="spacingAndGlyphs" textLength="159" x="408.5" y="331.2104">ImageFilesModel imageFiles</text><rect fill="none" height="6" style="stroke: #C82930; stroke-width: 1.0;" width="6" x="396.5" y="337.8047"/><text fill="#000000" font-family="sans-serif" font-size="11" lengthAdjust="spacingAndGlyphs" textLength="207" x="408.5" y="344.0151">CroppingImageModel croppingImage</text><rect fill="none" height="6" style="stroke: #C82930; stroke-width: 1.0;" width="6" x="396.5" y="350.6094"/><text fill="#000000" font-family="sans-serif" font-size="11" lengthAdjust="spacingAndGlyphs" textLength="158" x="408.5" y="356.8198">TileImagesModel tileImages</text><line style="stroke: #A80036; stroke-width: 1.5;" x1="389.5" x2="620.5" y1="363.4141" y2="363.4141"/><!--MD5=[a64a835c3d62471a77f615251fdde58a]
class Position--><rect fill="#FEFECE" filter="url(#f1f5x6x1o300vw)" height="150.4375" id="Position" style="stroke: #A80036; stroke-width: 1.5;" width="137" x="402.5" y="973"/><ellipse cx="442.25" cy="989" fill="#ADD1B2" rx="11" ry="11" style="stroke: #A80036; stroke-width: 1.0;"/><path d="M445.2188,994.6406 Q444.6406,994.9375 444,995.0859 Q443.3594,995.2344 442.6563,995.2344 Q440.1563,995.2344 438.8359,993.5859 Q437.5156,991.9375 437.5156,988.8125 Q437.5156,985.6875 438.8359,984.0313 Q440.1563,982.375 442.6563,982.375 Q443.3594,982.375 444.0078,982.5313 Q444.6563,982.6875 445.2188,982.9844 L445.2188,985.7031 Q444.5938,985.125 444,984.8516 Q443.4063,984.5781 442.7813,984.5781 Q441.4375,984.5781 440.75,985.6484 Q440.0625,986.7188 440.0625,988.8125 Q440.0625,990.9063 440.75,991.9766 Q441.4375,993.0469 442.7813,993.0469 Q443.4063,993.0469 444,992.7734 Q444.5938,992.5 445.2188,991.9219 L445.2188,994.6406 Z "/><text fill="#000000" font-family="sans-serif" font-size="12" lengthAdjust="spacingAndGlyphs" textLength="50" x="461.75" y="993.1543">Position</text><line style="stroke: #A80036; stroke-width: 1.5;" x1="403.5" x2="538.5" y1="1005" y2="1005"/><rect fill="none" height="6" style="stroke: #C82930; stroke-width: 1.0;" width="6" x="410.5" y="1013"/><text fill="#000000" font-family="sans-serif" font-size="11" lengthAdjust="spacingAndGlyphs" textLength="24" x="422.5" y="1019.2104">int x</text><rect fill="none" height="6" style="stroke: #C82930; stroke-width: 1.0;" width="6" x="410.5" y="1025.8047"/><text fill="#000000" font-family="sans-serif" font-size="11" lengthAdjust="spacingAndGlyphs" textLength="24" x="422.5" y="1032.0151">int y</text><line style="stroke: #A80036; stroke-width: 1.5;" x1="403.5" x2="538.5" y1="1038.6094" y2="1038.6094"/><ellipse cx="413.5" cy="1049.6094" fill="#84BE84" rx="3" ry="3" style="stroke: #038048; stroke-width: 1.0;"/><text fill="#000000" font-family="sans-serif" font-size="11" lengthAdjust="spacingAndGlyphs" textLength="51" x="422.5" y="1052.8198">int getX()</text><ellipse cx="413.5" cy="1062.4141" fill="#84BE84" rx="3" ry="3" style="stroke: #038048; stroke-width: 1.0;"/><text fill="#000000" font-family="sans-serif" font-size="11" lengthAdjust="spacingAndGlyphs" textLength="51" x="422.5" y="1065.6245">int getY()</text><ellipse cx="413.5" cy="1075.2188" fill="#84BE84" rx="3" ry="3" style="stroke: #038048; stroke-width: 1.0;"/><text fill="#000000" font-family="sans-serif" font-size="11" lengthAdjust="spacingAndGlyphs" textLength="95" x="422.5" y="1078.4292">void moveUp(int)</text><ellipse cx="413.5" cy="1088.0234" fill="#84BE84" rx="3" ry="3" style="stroke: #038048; stroke-width: 1.0;"/><text fill="#000000" font-family="sans-serif" font-size="11" lengthAdjust="spacingAndGlyphs" textLength="108" x="422.5" y="1091.2339">void moveRight(int)</text><ellipse cx="413.5" cy="1100.8281" fill="#84BE84" rx="3" ry="3" style="stroke: #038048; stroke-width: 1.0;"/><text fill="#000000" font-family="sans-serif" font-size="11" lengthAdjust="spacingAndGlyphs" textLength="111" x="422.5" y="1104.0386">void moveDown(int)</text><ellipse cx="413.5" cy="1113.6328" fill="#84BE84" rx="3" ry="3" style="stroke: #038048; stroke-width: 1.0;"/><text fill="#000000" font-family="sans-serif" font-size="11" lengthAdjust="spacingAndGlyphs" textLength="101" x="422.5" y="1116.8433">void moveLeft(int)</text><!--MD5=[b5313cd49da22b0744b541f414f8445e]
class Rectangle--><rect fill="#FEFECE" filter="url(#f1f5x6x1o300vw)" height="99.2188" id="Rectangle" style="stroke: #A80036; stroke-width: 1.5;" width="106" x="261" y="998.5"/><ellipse cx="280.95" cy="1014.5" fill="#ADD1B2" rx="11" ry="11" style="stroke: #A80036; stroke-width: 1.0;"/><path d="M283.9188,1020.1406 Q283.3406,1020.4375 282.7,1020.5859 Q282.0594,1020.7344 281.3563,1020.7344 Q278.8563,1020.7344 277.5359,1019.0859 Q276.2156,1017.4375 276.2156,1014.3125 Q276.2156,1011.1875 277.5359,1009.5313 Q278.8563,1007.875 281.3563,1007.875 Q282.0594,1007.875 282.7078,1008.0313 Q283.3563,1008.1875 283.9188,1008.4844 L283.9188,1011.2031 Q283.2938,1010.625 282.7,1010.3516 Q282.1063,1010.0781 281.4813,1010.0781 Q280.1375,1010.0781 279.45,1011.1484 Q278.7625,1012.2188 278.7625,1014.3125 Q278.7625,1016.4063 279.45,1017.4766 Q280.1375,1018.5469 281.4813,1018.5469 Q282.1063,1018.5469 282.7,1018.2734 Q283.2938,1018 283.9188,1017.4219 L283.9188,1020.1406 Z "/><text fill="#000000" font-family="sans-serif" font-size="12" lengthAdjust="spacingAndGlyphs" textLength="63" x="296.05" y="1018.6543">Rectangle</text><line style="stroke: #A80036; stroke-width: 1.5;" x1="262" x2="366" y1="1030.5" y2="1030.5"/><rect fill="none" height="6" style="stroke: #C82930; stroke-width: 1.0;" width="6" x="269" y="1038.5"/><text fill="#000000" font-family="sans-serif" font-size="11" lengthAdjust="spacingAndGlyphs" textLength="48" x="281" y="1044.7104">int width</text><rect fill="none" height="6" style="stroke: #C82930; stroke-width: 1.0;" width="6" x="269" y="1051.3047"/><text fill="#000000" font-family="sans-serif" font-size="11" lengthAdjust="spacingAndGlyphs" textLength="53" x="281" y="1057.5151">int height</text><line style="stroke: #A80036; stroke-width: 1.5;" x1="262" x2="366" y1="1064.1094" y2="1064.1094"/><ellipse cx="272" cy="1075.1094" fill="#84BE84" rx="3" ry="3" style="stroke: #038048; stroke-width: 1.0;"/><text fill="#000000" font-family="sans-serif" font-size="11" lengthAdjust="spacingAndGlyphs" textLength="74" x="281" y="1078.3198">int getWidth()</text><ellipse cx="272" cy="1087.9141" fill="#84BE84" rx="3" ry="3" style="stroke: #038048; stroke-width: 1.0;"/><text fill="#000000" font-family="sans-serif" font-size="11" lengthAdjust="spacingAndGlyphs" textLength="80" x="281" y="1091.1245">int getHeight()</text><!--MD5=[267c091dc0601f7b2440128207609600]
class TileImage--><rect fill="#FEFECE" filter="url(#f1f5x6x1o300vw)" height="99.2188" id="TileImage" style="stroke: #A80036; stroke-width: 1.5;" width="186" x="575" y="998.5"/><ellipse cx="634.25" cy="1014.5" fill="#ADD1B2" rx="11" ry="11" style="stroke: #A80036; stroke-width: 1.0;"/><path d="M637.2188,1020.1406 Q636.6406,1020.4375 636,1020.5859 Q635.3594,1020.7344 634.6563,1020.7344 Q632.1563,1020.7344 630.8359,1019.0859 Q629.5156,1017.4375 629.5156,1014.3125 Q629.5156,1011.1875 630.8359,1009.5313 Q632.1563,1007.875 634.6563,1007.875 Q635.3594,1007.875 636.0078,1008.0313 Q636.6563,1008.1875 637.2188,1008.4844 L637.2188,1011.2031 Q636.5938,1010.625 636,1010.3516 Q635.4063,1010.0781 634.7813,1010.0781 Q633.4375,1010.0781 632.75,1011.1484 Q632.0625,1012.2188 632.0625,1014.3125 Q632.0625,1016.4063 632.75,1017.4766 Q633.4375,1018.5469 634.7813,1018.5469 Q635.4063,1018.5469 636,1018.2734 Q636.5938,1018 637.2188,1017.4219 L637.2188,1020.1406 Z "/><text fill="#000000" font-family="sans-serif" font-size="12" lengthAdjust="spacingAndGlyphs" textLength="59" x="654.75" y="1018.6543">TileImage</text><line style="stroke: #A80036; stroke-width: 1.5;" x1="576" x2="760" y1="1030.5" y2="1030.5"/><rect fill="none" height="6" style="stroke: #C82930; stroke-width: 1.0;" width="6" x="583" y="1038.5"/><text fill="#000000" font-family="sans-serif" font-size="11" lengthAdjust="spacingAndGlyphs" textLength="74" x="595" y="1044.7104">Image image</text><rect fill="none" height="6" style="stroke: #C82930; stroke-width: 1.0;" width="6" x="583" y="1051.3047"/><text fill="#000000" font-family="sans-serif" font-size="11" lengthAdjust="spacingAndGlyphs" textLength="90" x="595" y="1057.5151">TilePosition pos</text><line style="stroke: #A80036; stroke-width: 1.5;" x1="576" x2="760" y1="1064.1094" y2="1064.1094"/><ellipse cx="586" cy="1075.1094" fill="#84BE84" rx="3" ry="3" style="stroke: #038048; stroke-width: 1.0;"/><text fill="#000000" font-family="sans-serif" font-size="11" lengthAdjust="spacingAndGlyphs" textLength="100" x="595" y="1078.3198">Image getImage()</text><ellipse cx="586" cy="1087.9141" fill="#84BE84" rx="3" ry="3" style="stroke: #038048; stroke-width: 1.0;"/><text fill="#000000" font-family="sans-serif" font-size="11" lengthAdjust="spacingAndGlyphs" textLength="160" x="595" y="1091.1245">TilePosition getTilePosition()</text><!--MD5=[975af3dd17f824e608bc0868e5ce5c98]
class TilePosition--><rect fill="#FEFECE" filter="url(#f1f5x6x1o300vw)" height="99.2188" id="TilePosition" style="stroke: #A80036; stroke-width: 1.5;" width="103" x="636.5" y="1183"/><ellipse cx="651.5" cy="1199" fill="#ADD1B2" rx="11" ry="11" style="stroke: #A80036; stroke-width: 1.0;"/><path d="M654.4688,1204.6406 Q653.8906,1204.9375 653.25,1205.0859 Q652.6094,1205.2344 651.9063,1205.2344 Q649.4063,1205.2344 648.0859,1203.5859 Q646.7656,1201.9375 646.7656,1198.8125 Q646.7656,1195.6875 648.0859,1194.0313 Q649.4063,1192.375 651.9063,1192.375 Q652.6094,1192.375 653.2578,1192.5313 Q653.9063,1192.6875 654.4688,1192.9844 L654.4688,1195.7031 Q653.8438,1195.125 653.25,1194.8516 Q652.6563,1194.5781 652.0313,1194.5781 Q650.6875,1194.5781 650,1195.6484 Q649.3125,1196.7188 649.3125,1198.8125 Q649.3125,1200.9063 650,1201.9766 Q650.6875,1203.0469 652.0313,1203.0469 Q652.6563,1203.0469 653.25,1202.7734 Q653.8438,1202.5 654.4688,1201.9219 L654.4688,1204.6406 Z "/><text fill="#000000" font-family="sans-serif" font-size="12" lengthAdjust="spacingAndGlyphs" textLength="71" x="665.5" y="1203.1543">TilePosition</text><line style="stroke: #A80036; stroke-width: 1.5;" x1="637.5" x2="738.5" y1="1215" y2="1215"/><rect fill="none" height="6" style="stroke: #C82930; stroke-width: 1.0;" width="6" x="644.5" y="1223"/><text fill="#000000" font-family="sans-serif" font-size="11" lengthAdjust="spacingAndGlyphs" textLength="39" x="656.5" y="1229.2104">int row</text><rect fill="none" height="6" style="stroke: #C82930; stroke-width: 1.0;" width="6" x="644.5" y="1235.8047"/><text fill="#000000" font-family="sans-serif" font-size="11" lengthAdjust="spacingAndGlyphs" textLength="34" x="656.5" y="1242.0151">int col</text><line style="stroke: #A80036; stroke-width: 1.5;" x1="637.5" x2="738.5" y1="1248.6094" y2="1248.6094"/><ellipse cx="647.5" cy="1259.6094" fill="#84BE84" rx="3" ry="3" style="stroke: #038048; stroke-width: 1.0;"/><text fill="#000000" font-family="sans-serif" font-size="11" lengthAdjust="spacingAndGlyphs" textLength="67" x="656.5" y="1262.8198">int getRow()</text><ellipse cx="647.5" cy="1272.4141" fill="#84BE84" rx="3" ry="3" style="stroke: #038048; stroke-width: 1.0;"/><text fill="#000000" font-family="sans-serif" font-size="11" lengthAdjust="spacingAndGlyphs" textLength="62" x="656.5" y="1275.6245">int getCol()</text><!--MD5=[ffeadfd16f5655fcc99e9f2717421624]
class ImageFileModel--><rect fill="#FEFECE" filter="url(#f1f5x6x1o300vw)" height="112.0234" id="ImageFileModel" style="stroke: #A80036; stroke-width: 1.5;" width="142" x="158" y="801"/><ellipse cx="179.3" cy="817" fill="#ADD1B2" rx="11" ry="11" style="stroke: #A80036; stroke-width: 1.0;"/><path d="M182.2688,822.6406 Q181.6906,822.9375 181.05,823.0859 Q180.4094,823.2344 179.7063,823.2344 Q177.2063,823.2344 175.8859,821.5859 Q174.5656,819.9375 174.5656,816.8125 Q174.5656,813.6875 175.8859,812.0313 Q177.2063,810.375 179.7063,810.375 Q180.4094,810.375 181.0578,810.5313 Q181.7063,810.6875 182.2688,810.9844 L182.2688,813.7031 Q181.6438,813.125 181.05,812.8516 Q180.4563,812.5781 179.8313,812.5781 Q178.4875,812.5781 177.8,813.6484 Q177.1125,814.7188 177.1125,816.8125 Q177.1125,818.9063 177.8,819.9766 Q178.4875,821.0469 179.8313,821.0469 Q180.4563,821.0469 181.05,820.7734 Q181.6438,820.5 182.2688,819.9219 L182.2688,822.6406 Z "/><text fill="#000000" font-family="sans-serif" font-size="12" lengthAdjust="spacingAndGlyphs" textLength="96" x="194.7" y="821.1543">ImageFileModel</text><line style="stroke: #A80036; stroke-width: 1.5;" x1="159" x2="299" y1="833" y2="833"/><rect fill="none" height="6" style="stroke: #C82930; stroke-width: 1.0;" width="6" x="166" y="841"/><text fill="#000000" font-family="sans-serif" font-size="11" lengthAdjust="spacingAndGlyphs" textLength="40" x="178" y="847.2104">File file</text><rect fill="none" height="6" style="stroke: #C82930; stroke-width: 1.0;" width="6" x="166" y="853.8047"/><text fill="#000000" font-family="sans-serif" font-size="11" lengthAdjust="spacingAndGlyphs" textLength="108" x="178" y="860.0151">boolean isSelected</text><line style="stroke: #A80036; stroke-width: 1.5;" x1="159" x2="299" y1="866.6094" y2="866.6094"/><ellipse cx="169" cy="877.6094" fill="#84BE84" rx="3" ry="3" style="stroke: #038048; stroke-width: 1.0;"/><text fill="#000000" font-family="sans-serif" font-size="11" lengthAdjust="spacingAndGlyphs" textLength="116" x="178" y="880.8198">boolean isSelected()</text><ellipse cx="169" cy="890.4141" fill="#84BE84" rx="3" ry="3" style="stroke: #038048; stroke-width: 1.0;"/><text fill="#000000" font-family="sans-serif" font-size="11" lengthAdjust="spacingAndGlyphs" textLength="102" x="178" y="893.6245">boolean isImage()</text><ellipse cx="169" cy="903.2188" fill="#84BE84" rx="3" ry="3" style="stroke: #038048; stroke-width: 1.0;"/><text fill="#000000" font-family="sans-serif" font-size="11" lengthAdjust="spacingAndGlyphs" textLength="108" x="178" y="906.4292">Image readImage()</text><!--MD5=[ecd82eccdb86bf450d7d519869be073b]
class ImageFilesModel--><rect fill="#FEFECE" filter="url(#f1f5x6x1o300vw)" height="176.0469" id="ImageFilesModel" style="stroke: #A80036; stroke-width: 1.5;" width="324" x="30" y="565"/><ellipse cx="136.25" cy="581" fill="#ADD1B2" rx="11" ry="11" style="stroke: #A80036; stroke-width: 1.0;"/><path d="M139.2188,586.6406 Q138.6406,586.9375 138,587.0859 Q137.3594,587.2344 136.6563,587.2344 Q134.1563,587.2344 132.8359,585.5859 Q131.5156,583.9375 131.5156,580.8125 Q131.5156,577.6875 132.8359,576.0313 Q134.1563,574.375 136.6563,574.375 Q137.3594,574.375 138.0078,574.5313 Q138.6563,574.6875 139.2188,574.9844 L139.2188,577.7031 Q138.5938,577.125 138,576.8516 Q137.4063,576.5781 136.7813,576.5781 Q135.4375,576.5781 134.75,577.6484 Q134.0625,578.7188 134.0625,580.8125 Q134.0625,582.9063 134.75,583.9766 Q135.4375,585.0469 136.7813,585.0469 Q137.4063,585.0469 138,584.7734 Q138.5938,584.5 139.2188,583.9219 L139.2188,586.6406 Z "/><text fill="#000000" font-family="sans-serif" font-size="12" lengthAdjust="spacingAndGlyphs" textLength="103" x="156.75" y="585.1543">ImageFilesModel</text><line style="stroke: #A80036; stroke-width: 1.5;" x1="31" x2="353" y1="597" y2="597"/><rect fill="none" height="6" style="stroke: #C82930; stroke-width: 1.0;" width="6" x="38" y="605"/><text fill="#000000" font-family="sans-serif" font-size="11" lengthAdjust="spacingAndGlyphs" textLength="153" x="50" y="611.2104">List&lt;ImageFileModel&gt; files</text><rect fill="none" height="6" style="stroke: #C82930; stroke-width: 1.0;" width="6" x="38" y="617.8047"/><text fill="#000000" font-family="sans-serif" font-size="11" lengthAdjust="spacingAndGlyphs" textLength="87" x="50" y="624.0151">int selectedPos</text><line style="stroke: #A80036; stroke-width: 1.5;" x1="31" x2="353" y1="630.6094" y2="630.6094"/><ellipse cx="41" cy="641.6094" fill="#84BE84" rx="3" ry="3" style="stroke: #038048; stroke-width: 1.0;"/><text fill="#000000" font-family="sans-serif" font-size="11" lengthAdjust="spacingAndGlyphs" textLength="143" x="50" y="644.8198">void add(ImageFileModel)</text><ellipse cx="41" cy="654.4141" fill="#84BE84" rx="3" ry="3" style="stroke: #038048; stroke-width: 1.0;"/><text fill="#000000" font-family="sans-serif" font-size="11" lengthAdjust="spacingAndGlyphs" textLength="92" x="50" y="657.6245">void remove(int)</text><ellipse cx="41" cy="667.2188" fill="#84BE84" rx="3" ry="3" style="stroke: #038048; stroke-width: 1.0;"/><text fill="#000000" font-family="sans-serif" font-size="11" lengthAdjust="spacingAndGlyphs" textLength="63" x="50" y="670.4292">void clear()</text><ellipse cx="41" cy="680.0234" fill="#84BE84" rx="3" ry="3" style="stroke: #038048; stroke-width: 1.0;"/><text fill="#000000" font-family="sans-serif" font-size="11" lengthAdjust="spacingAndGlyphs" textLength="83" x="50" y="683.2339">void select(int)</text><ellipse cx="41" cy="692.8281" fill="#84BE84" rx="3" ry="3" style="stroke: #038048; stroke-width: 1.0;"/><text fill="#000000" font-family="sans-serif" font-size="11" lengthAdjust="spacingAndGlyphs" textLength="94" x="50" y="696.0386">void selectFirst()</text><ellipse cx="41" cy="705.6328" fill="#84BE84" rx="3" ry="3" style="stroke: #038048; stroke-width: 1.0;"/><text fill="#000000" font-family="sans-serif" font-size="11" lengthAdjust="spacingAndGlyphs" textLength="94" x="50" y="708.8433">void selectNext()</text><ellipse cx="41" cy="718.4375" fill="#84BE84" rx="3" ry="3" style="stroke: #038048; stroke-width: 1.0;"/><text fill="#000000" font-family="sans-serif" font-size="11" lengthAdjust="spacingAndGlyphs" textLength="94" x="50" y="721.6479">void selectPrev()</text><ellipse cx="41" cy="731.2422" fill="#84BE84" rx="3" ry="3" style="stroke: #038048; stroke-width: 1.0;"/><text fill="#000000" font-family="sans-serif" font-size="11" lengthAdjust="spacingAndGlyphs" textLength="298" x="50" y="734.4526">List&lt;ImageFileModel&gt; getSelectedImageFilesModel()</text><!--MD5=[ee0f85ca51dc548c973e440aa214b04b]
class CroppingImageModel--><rect fill="#FEFECE" filter="url(#f1f5x6x1o300vw)" height="176.0469" id="CroppingImageModel" style="stroke: #A80036; stroke-width: 1.5;" width="163" x="389.5" y="565"/><ellipse cx="404.5" cy="581" fill="#ADD1B2" rx="11" ry="11" style="stroke: #A80036; stroke-width: 1.0;"/><path d="M407.4688,586.6406 Q406.8906,586.9375 406.25,587.0859 Q405.6094,587.2344 404.9063,587.2344 Q402.4063,587.2344 401.0859,585.5859 Q399.7656,583.9375 399.7656,580.8125 Q399.7656,577.6875 401.0859,576.0313 Q402.4063,574.375 404.9063,574.375 Q405.6094,574.375 406.2578,574.5313 Q406.9063,574.6875 407.4688,574.9844 L407.4688,577.7031 Q406.8438,577.125 406.25,576.8516 Q405.6563,576.5781 405.0313,576.5781 Q403.6875,576.5781 403,577.6484 Q402.3125,578.7188 402.3125,580.8125 Q402.3125,582.9063 403,583.9766 Q403.6875,585.0469 405.0313,585.0469 Q405.6563,585.0469 406.25,584.7734 Q406.8438,584.5 407.4688,583.9219 L407.4688,586.6406 Z "/><text fill="#000000" font-family="sans-serif" font-size="12" lengthAdjust="spacingAndGlyphs" textLength="131" x="418.5" y="585.1543">CroppingImageModel</text><line style="stroke: #A80036; stroke-width: 1.5;" x1="390.5" x2="551.5" y1="597" y2="597"/><rect fill="none" height="6" style="stroke: #C82930; stroke-width: 1.0;" width="6" x="397.5" y="605"/><text fill="#000000" font-family="sans-serif" font-size="11" lengthAdjust="spacingAndGlyphs" textLength="74" x="409.5" y="611.2104">Image image</text><rect fill="none" height="6" style="stroke: #C82930; stroke-width: 1.0;" width="6" x="397.5" y="617.8047"/><text fill="#000000" font-family="sans-serif" font-size="11" lengthAdjust="spacingAndGlyphs" textLength="95" x="409.5" y="624.0151">Position cropPos</text><rect fill="none" height="6" style="stroke: #C82930; stroke-width: 1.0;" width="6" x="397.5" y="630.6094"/><text fill="#000000" font-family="sans-serif" font-size="11" lengthAdjust="spacingAndGlyphs" textLength="108" x="409.5" y="636.8198">Rectangle cropRect</text><rect fill="none" height="6" style="stroke: #C82930; stroke-width: 1.0;" width="6" x="397.5" y="643.4141"/><text fill="#000000" font-family="sans-serif" font-size="11" lengthAdjust="spacingAndGlyphs" textLength="72" x="409.5" y="649.6245">double scale</text><line style="stroke: #A80036; stroke-width: 1.5;" x1="390.5" x2="551.5" y1="656.2188" y2="656.2188"/><ellipse cx="400.5" cy="667.2188" fill="#84BE84" rx="3" ry="3" style="stroke: #038048; stroke-width: 1.0;"/><text fill="#000000" font-family="sans-serif" font-size="11" lengthAdjust="spacingAndGlyphs" textLength="72" x="409.5" y="670.4292">Image crop()</text><ellipse cx="400.5" cy="680.0234" fill="#84BE84" rx="3" ry="3" style="stroke: #038048; stroke-width: 1.0;"/><text fill="#000000" font-family="sans-serif" font-size="11" lengthAdjust="spacingAndGlyphs" textLength="95" x="409.5" y="683.2339">void moveUp(int)</text><ellipse cx="400.5" cy="692.8281" fill="#84BE84" rx="3" ry="3" style="stroke: #038048; stroke-width: 1.0;"/><text fill="#000000" font-family="sans-serif" font-size="11" lengthAdjust="spacingAndGlyphs" textLength="108" x="409.5" y="696.0386">void moveRight(int)</text><ellipse cx="400.5" cy="705.6328" fill="#84BE84" rx="3" ry="3" style="stroke: #038048; stroke-width: 1.0;"/><text fill="#000000" font-family="sans-serif" font-size="11" lengthAdjust="spacingAndGlyphs" textLength="111" x="409.5" y="708.8433">void moveDown(int)</text><ellipse cx="400.5" cy="718.4375" fill="#84BE84" rx="3" ry="3" style="stroke: #038048; stroke-width: 1.0;"/><text fill="#000000" font-family="sans-serif" font-size="11" lengthAdjust="spacingAndGlyphs" textLength="101" x="409.5" y="721.6479">void moveLeft(int)</text><ellipse cx="400.5" cy="731.2422" fill="#84BE84" rx="3" ry="3" style="stroke: #038048; stroke-width: 1.0;"/><text fill="#000000" font-family="sans-serif" font-size="11" lengthAdjust="spacingAndGlyphs" textLength="122" x="409.5" y="734.4526">void setScale(double)</text><!--MD5=[2936e0c8c98cdc5b3c1d188adbdba763]
class TileImagesModel--><rect fill="#FEFECE" filter="url(#f1f5x6x1o300vw)" height="163.2422" id="TileImagesModel" style="stroke: #A80036; stroke-width: 1.5;" width="229" x="587.5" y="571.5"/><ellipse cx="646.25" cy="587.5" fill="#ADD1B2" rx="11" ry="11" style="stroke: #A80036; stroke-width: 1.0;"/><path d="M649.2188,593.1406 Q648.6406,593.4375 648,593.5859 Q647.3594,593.7344 646.6563,593.7344 Q644.1563,593.7344 642.8359,592.0859 Q641.5156,590.4375 641.5156,587.3125 Q641.5156,584.1875 642.8359,582.5313 Q644.1563,580.875 646.6563,580.875 Q647.3594,580.875 648.0078,581.0313 Q648.6563,581.1875 649.2188,581.4844 L649.2188,584.2031 Q648.5938,583.625 648,583.3516 Q647.4063,583.0781 646.7813,583.0781 Q645.4375,583.0781 644.75,584.1484 Q644.0625,585.2188 644.0625,587.3125 Q644.0625,589.4063 644.75,590.4766 Q645.4375,591.5469 646.7813,591.5469 Q647.4063,591.5469 648,591.2734 Q648.5938,591 649.2188,590.4219 L649.2188,593.1406 Z "/><text fill="#000000" font-family="sans-serif" font-size="12" lengthAdjust="spacingAndGlyphs" textLength="103" x="666.75" y="591.6543">TileImagesModel</text><line style="stroke: #A80036; stroke-width: 1.5;" x1="588.5" x2="815.5" y1="603.5" y2="603.5"/><rect fill="none" height="6" style="stroke: #C82930; stroke-width: 1.0;" width="6" x="595.5" y="611.5"/><text fill="#000000" font-family="sans-serif" font-size="11" lengthAdjust="spacingAndGlyphs" textLength="139" x="607.5" y="617.7104">List&lt;TileImage&gt; images</text><rect fill="none" height="6" style="stroke: #C82930; stroke-width: 1.0;" width="6" x="595.5" y="624.3047"/><text fill="#000000" font-family="sans-serif" font-size="11" lengthAdjust="spacingAndGlyphs" textLength="72" x="607.5" y="630.5151">int rowCount</text><rect fill="none" height="6" style="stroke: #C82930; stroke-width: 1.0;" width="6" x="595.5" y="637.1094"/><text fill="#000000" font-family="sans-serif" font-size="11" lengthAdjust="spacingAndGlyphs" textLength="67" x="607.5" y="643.3198">int colCount</text><line style="stroke: #A80036; stroke-width: 1.5;" x1="588.5" x2="815.5" y1="649.9141" y2="649.9141"/><ellipse cx="598.5" cy="660.9141" fill="#84BE84" rx="3" ry="3" style="stroke: #038048; stroke-width: 1.0;"/><text fill="#000000" font-family="sans-serif" font-size="11" lengthAdjust="spacingAndGlyphs" textLength="203" x="607.5" y="664.1245">void swap(TilePosition, TilePosition)</text><ellipse cx="598.5" cy="673.7188" fill="#84BE84" rx="3" ry="3" style="stroke: #038048; stroke-width: 1.0;"/><text fill="#000000" font-family="sans-serif" font-size="11" lengthAdjust="spacingAndGlyphs" textLength="143" x="607.5" y="676.9292">void remove(TilePosition)</text><ellipse cx="598.5" cy="686.5234" fill="#84BE84" rx="3" ry="3" style="stroke: #038048; stroke-width: 1.0;"/><text fill="#000000" font-family="sans-serif" font-size="11" lengthAdjust="spacingAndGlyphs" textLength="63" x="607.5" y="689.7339">void clear()</text><polygon fill="#4177AF" points="598.5,695.3281,594.5,701.3281,602.5,701.3281" style="stroke: #1963A0; stroke-width: 1.0;"/><text fill="#000000" font-family="sans-serif" font-size="11" lengthAdjust="spacingAndGlyphs" textLength="86" x="607.5" y="702.5386">int getImages()</text><polygon fill="#4177AF" points="598.5,708.1328,594.5,714.1328,602.5,714.1328" style="stroke: #1963A0; stroke-width: 1.0;"/><text fill="#000000" font-family="sans-serif" font-size="11" lengthAdjust="spacingAndGlyphs" textLength="100" x="607.5" y="715.3433">int getRowCount()</text><polygon fill="#4177AF" points="598.5,720.9375,594.5,726.9375,602.5,726.9375" style="stroke: #1963A0; stroke-width: 1.0;"/><text fill="#000000" font-family="sans-serif" font-size="11" lengthAdjust="spacingAndGlyphs" textLength="95" x="607.5" y="728.1479">int getColCount()</text><!--MD5=[7e3654be88b2fc0d611bbe408a96ac57]
class ImageIOUtil--><rect fill="#FEFECE" filter="url(#f1f5x6x1o300vw)" height="73.6094" id="ImageIOUtil" style="stroke: #A80036; stroke-width: 1.5;" width="230" x="581" y="431"/><ellipse cx="656.75" cy="447" fill="#ADD1B2" rx="11" ry="11" style="stroke: #A80036; stroke-width: 1.0;"/><path d="M659.7188,452.6406 Q659.1406,452.9375 658.5,453.0859 Q657.8594,453.2344 657.1563,453.2344 Q654.6563,453.2344 653.3359,451.5859 Q652.0156,449.9375 652.0156,446.8125 Q652.0156,443.6875 653.3359,442.0313 Q654.6563,440.375 657.1563,440.375 Q657.8594,440.375 658.5078,440.5313 Q659.1563,440.6875 659.7188,440.9844 L659.7188,443.7031 Q659.0938,443.125 658.5,442.8516 Q657.9063,442.5781 657.2813,442.5781 Q655.9375,442.5781 655.25,443.6484 Q654.5625,444.7188 654.5625,446.8125 Q654.5625,448.9063 655.25,449.9766 Q655.9375,451.0469 657.2813,451.0469 Q657.9063,451.0469 658.5,450.7734 Q659.0938,450.5 659.7188,449.9219 L659.7188,452.6406 Z "/><text fill="#000000" font-family="sans-serif" font-size="12" lengthAdjust="spacingAndGlyphs" textLength="70" x="677.25" y="451.1543">ImageIOUtil</text><line style="stroke: #A80036; stroke-width: 1.5;" x1="582" x2="810" y1="463" y2="463"/><line style="stroke: #A80036; stroke-width: 1.5;" x1="582" x2="810" y1="471" y2="471"/><ellipse cx="592" cy="482" fill="#84BE84" rx="3" ry="3" style="stroke: #038048; stroke-width: 1.0;"/><text fill="#000000" font-family="sans-serif" font-size="11" lengthAdjust="spacingAndGlyphs" textLength="204" x="601" y="485.2104">void writeFile(File, TileImagesModel)</text><rect fill="#F24D5C" height="6" style="stroke: #C82930; stroke-width: 1.0;" width="6" x="589" y="491.8047"/><text fill="#000000" font-family="sans-serif" font-size="11" lengthAdjust="spacingAndGlyphs" textLength="180" x="601" y="498.0151">Image format(TileImagesModel)</text><!--MD5=[c59cb84118cabe442c250726d0cf34c0]
reverse link Main to MainController--><path d="M505,117.1434 C505,132.663 505,149.7908 505,163.9764 " fill="none" id="Main&lt;-MainController" style="stroke: #A80036; stroke-width: 1.0;"/><polygon fill="#A80036" points="505,104.0334,501,110.0334,505,116.0334,509,110.0334,505,104.0334" style="stroke: #A80036; stroke-width: 1.0;"/><!--MD5=[292789f58ab3a37b0ba95d325ed3a4ae]
reverse link MainController to MainService--><path d="M505,238.2742 C505,253.2377 505,269.9556 505,284.8681 " fill="none" id="MainController&lt;-MainService" style="stroke: #A80036; stroke-width: 1.0;"/><polygon fill="#A80036" points="505,225.1276,501,231.1276,505,237.1276,509,231.1276,505,225.1276" style="stroke: #A80036; stroke-width: 1.0;"/><!--MD5=[4d7f0df4035b1f730aaf66336b29cfb7]
reverse link MainService to ImageFilesModel--><path d="M454.1945,380.7533 C406.2718,430.5133 333.5259,506.0482 276.8071,564.9415 " fill="none" id="MainService&lt;-ImageFilesModel" style="stroke: #A80036; stroke-width: 1.0;"/><polygon fill="#A80036" points="463.436,371.1575,456.3928,372.7045,455.1118,379.8009,462.1551,378.2539,463.436,371.1575" style="stroke: #A80036; stroke-width: 1.0;"/><!--MD5=[bd2adaa9ced3f1de4e151063a4b22585]
reverse link MainService to CroppingImageModel--><path d="M499.1191,384.2144 C493.9143,433.9666 486.2322,507.3978 480.2123,564.9415 " fill="none" id="MainService&lt;-CroppingImageModel" style="stroke: #A80036; stroke-width: 1.0;"/><polygon fill="#A80036" points="500.4851,371.1575,495.8825,376.7087,499.2364,383.0924,503.8391,377.5411,500.4851,371.1575" style="stroke: #A80036; stroke-width: 1.0;"/><!--MD5=[8ad5a901c2c5b0f966e6bbfacd9d0629]
reverse link MainService to TileImagesModel--><path d="M516.0165,383.8507 C525.215,422.1165 540.7914,472.9864 565,513 C577.4105,533.5128 593.3755,553.3452 609.9962,571.3162 " fill="none" id="MainService&lt;-TileImagesModel" style="stroke: #A80036; stroke-width: 1.0;"/><polygon fill="#A80036" points="513.0817,371.1355,510.5336,377.8814,515.7805,382.8281,518.3286,376.0822,513.0817,371.1355" style="stroke: #A80036; stroke-width: 1.0;"/><!--MD5=[26f0e6a49529eb0f80dafc0ab5a89306]
link MainService to ImageIOUtil--><path d="M563.8648,371.147 C588.5253,389.2228 617.0274,410.1143 641.233,427.8567 " fill="none" id="MainService-&gt;ImageIOUtil" style="stroke: #A80036; stroke-width: 1.0; stroke-dasharray: 7.0,7.0;"/><polygon fill="#A80036" points="645.3893,430.9032,640.4953,422.3564,641.3566,427.9472,635.7658,428.8086,645.3893,430.9032" style="stroke: #A80036; stroke-width: 1.0;"/><!--MD5=[16b31af54ca0df8392e7e88c5e7c7bcb]
reverse link ImageFilesModel to ImageFileModel--><path d="M210.3493,754.169 C213.27,770.2725 216.1958,786.4037 218.8353,800.9567 " fill="none" id="ImageFilesModel&lt;-ImageFileModel" style="stroke: #A80036; stroke-width: 1.0;"/><polygon fill="#A80036" points="208.0135,741.2909,205.1485,747.9084,210.155,753.0983,213.0201,746.4807,208.0135,741.2909" style="stroke: #A80036; stroke-width: 1.0;"/><!--MD5=[f1f1abfbb316c17209780dc3e1b02183]
reverse link CroppingImageModel to Position--><path d="M471,754.4957 C471,822.615 471,910.8695 471,972.7428 " fill="none" id="CroppingImageModel&lt;-Position" style="stroke: #A80036; stroke-width: 1.0;"/><polygon fill="#A80036" points="471,741.1541,467,747.1541,471,753.1541,475,747.1541,471,741.1541" style="stroke: #A80036; stroke-width: 1.0;"/><!--MD5=[f8eeb885f5f9360c02482769c9b5ea3d]
reverse link CroppingImageModel to Rectangle--><path d="M431.0623,753.4801 C399.9335,831.7978 358.0407,937.1969 333.7328,998.3538 " fill="none" id="CroppingImageModel&lt;-Rectangle" style="stroke: #A80036; stroke-width: 1.0;"/><polygon fill="#A80036" points="435.9615,741.1541,430.0282,745.2524,431.5291,752.3055,437.4625,748.2073,435.9615,741.1541" style="stroke: #A80036; stroke-width: 1.0;"/><!--MD5=[88468d037659aea251acae9f66cd58d9]
reverse link TileImagesModel to TileImage--><path d="M693.805,748.2066 C687.021,827.021 677.653,935.8553 672.2702,998.3901 " fill="none" id="TileImagesModel&lt;-TileImage" style="stroke: #A80036; stroke-width: 1.0;"/><polygon fill="#A80036" points="694.9552,734.8443,690.4553,740.4791,693.926,746.8001,698.4258,741.1653,694.9552,734.8443" style="stroke: #A80036; stroke-width: 1.0;"/><!--MD5=[bfaa69fe4a296e1fb0b315720781a212]
link TileImagesModel to TilePosition--><path d="M739.601,734.6901 C778.1465,830.288 826.2709,992.1598 779,1123 C771.3086,1144.2888 757.4757,1164.3584 742.8792,1181.3571 " fill="none" id="TileImagesModel-&gt;TilePosition" style="stroke: #A80036; stroke-width: 1.0; stroke-dasharray: 7.0,7.0;"/><polygon fill="#A80036" points="739.5566,1185.1604,748.4901,1181.0141,742.8461,1181.3949,742.4653,1175.7509,739.5566,1185.1604" style="stroke: #A80036; stroke-width: 1.0;"/><!--MD5=[167228fa2ab9ddc9dee2447d5a2c6a8b]
link ImageIOUtil to TileImagesModel--><path d="M697.2142,505.4375 C697.7848,523.0316 698.491,544.8044 699.184,566.1721 " fill="none" id="ImageIOUtil-&gt;TileImagesModel" style="stroke: #A80036; stroke-width: 1.0; stroke-dasharray: 7.0,7.0;"/><polygon fill="#A80036" points="699.3503,571.301,703.0563,562.176,699.1882,566.3036,695.0605,562.4354,699.3503,571.301" style="stroke: #A80036; stroke-width: 1.0;"/><!--MD5=[fdb4528cb0c014bb650da008c41c2791]
reverse link TileImage to TilePosition--><path d="M674.829,1110.9978 C677.3729,1134.4648 680.2221,1160.7488 682.6181,1182.8517 " fill="none" id="TileImage&lt;-TilePosition" style="stroke: #A80036; stroke-width: 1.0;"/><polygon fill="#A80036" points="673.4123,1097.9284,670.0822,1104.3245,674.7055,1109.8585,678.0356,1103.4624,673.4123,1097.9284" style="stroke: #A80036; stroke-width: 1.0;"/><!--MD5=[7a3abd6526e17659710b95c30f1b7ca5]
link ImageFileModel to Rectangle--><!--MD5=[4552d26b9ba788d1756055d7d82e6de7]
@startuml
package com.jiro4989.tkfm {
  class Main {
    -MainController mainController
  }
  
  package controller {
    class MainController {
      -MainService mainService
    }
  }
  
  package service {
    class MainService {
      -ImageFilesModel imageFiles
      -CroppingImageModel croppingImage
      -TileImagesModel tileImages
    }
  }

  package data {
    class Position {
      -int x
      -int y
      +int getX()
      +int getY()
      +void moveUp(int)
      +void moveRight(int)
      +void moveDown(int)
      +void moveLeft(int)
    }
    
    class Rectangle {
      -int width
      -int height
      +int getWidth()
      +int getHeight()
    }
      
    class TileImage {
      -Image image
      -TilePosition pos
      +Image getImage()
      +TilePosition getTilePosition()
    }
    
    class TilePosition {
      -int row
      -int col
      
      +int getRow()
      +int getCol()
    }
  }
  
  package model {
    class ImageFileModel {
      -File file
      -boolean isSelected
      
      +boolean isSelected()
      +boolean isImage()
      +Image readImage()
    }
    
    class ImageFilesModel {
      -List<ImageFileModel> files
      -int selectedPos
      
      +void add(ImageFileModel)
      +void remove(int)
      +void clear()
      +void select(int)
      +void selectFirst()
      +void selectNext()
      +void selectPrev()
      +List<ImageFileModel> getSelectedImageFilesModel()
    }
    
    class CroppingImageModel {
      -Image image
      -Position cropPos
      -Rectangle cropRect
      -double scale
      
      +Image crop()
      +void moveUp(int)
      +void moveRight(int)
      +void moveDown(int)
      +void moveLeft(int)
      +void setScale(double)
    }
    
    class TileImagesModel {
      -List<TileImage> images
      -int rowCount
      -int colCount
      
      +void swap(TilePosition, TilePosition)
      +void remove(TilePosition)
      +void clear()
      ~int getImages()
      ~int getRowCount()
      ~int getColCount()
    }
  }

  package util {
    class ImageIOUtil {
      +void writeFile(File, TileImagesModel)
      -Image format(TileImagesModel)
    }
  }
}

Main *- - MainController

MainController *- - MainService

MainService *- - ImageFilesModel
MainService *- - CroppingImageModel
MainService *- - TileImagesModel
MainService ..> ImageIOUtil

ImageFilesModel *- - ImageFileModel

CroppingImageModel *- - Position
CroppingImageModel *- - Rectangle

TileImagesModel *- - TileImage
TileImagesModel ..> TilePosition

ImageIOUtil ..> TileImagesModel

TileImage *- - TilePosition

ImageFileModel -[hidden]down- Rectangle
@enduml

PlantUML version 1.2019.12(Sun Nov 03 10:24:54 UTC 2019)
(GPL source distribution)
Java Runtime: OpenJDK Runtime Environment
JVM: OpenJDK 64-Bit Server VM
Java Version: 1.8.0_232-heroku-b09
Operating System: Linux
Default Encoding: UTF-8
Language: en
Country: US
--></g></svg>