<?xml version="1.0" encoding="UTF-8" standalone="no"?><svg xmlns="http://www.w3.org/2000/svg" xmlns:xlink="http://www.w3.org/1999/xlink" contentScriptType="application/ecmascript" contentStyleType="text/css" height="534px" preserveAspectRatio="none" style="width:769px;height:534px;" version="1.1" viewBox="0 0 769 534" width="769px" zoomAndPan="magnify"><defs><filter height="300%" id="f4pb92qp55qjp" width="300%" x="-1" y="-1"><feGaussianBlur result="blurOut" stdDeviation="2.0"/><feColorMatrix in="blurOut" result="blurOut2" type="matrix" values="0 0 0 0 0 0 0 0 0 0 0 0 0 0 0 0 0 0 .4 0"/><feOffset dx="4.0" dy="4.0" in="blurOut2" result="blurOut3"/><feBlend in="SourceGraphic" in2="blurOut3" mode="normal"/></filter></defs><g><rect fill="#FFFFFF" filter="url(#f4pb92qp55qjp)" height="311.3281" style="stroke: #A80036; stroke-width: 1.0;" width="10" x="22" y="117.4297"/><rect fill="#FFFFFF" filter="url(#f4pb92qp55qjp)" height="341.4609" style="stroke: #A80036; stroke-width: 1.0;" width="10" x="259" y="96.2969"/><rect fill="#FFFFFF" filter="url(#f4pb92qp55qjp)" height="291.1953" style="stroke: #A80036; stroke-width: 1.0;" width="10" x="410" y="146.5625"/><rect fill="#FFFFFF" filter="url(#f4pb92qp55qjp)" height="198.7969" style="stroke: #A80036; stroke-width: 1.0;" width="10" x="543" y="238.9609"/><rect fill="#FFFFFF" filter="url(#f4pb92qp55qjp)" height="72.2656" style="stroke: #A80036; stroke-width: 1.0;" width="10" x="617" y="365.4922"/><line style="stroke: #A80036; stroke-width: 1.0; stroke-dasharray: 5.0,5.0;" x1="27" x2="27" y1="86.2969" y2="446.7578"/><line style="stroke: #A80036; stroke-width: 1.0; stroke-dasharray: 5.0,5.0;" x1="264" x2="264" y1="86.2969" y2="446.7578"/><line style="stroke: #A80036; stroke-width: 1.0; stroke-dasharray: 5.0,5.0;" x1="414.5" x2="414.5" y1="86.2969" y2="446.7578"/><line style="stroke: #A80036; stroke-width: 1.0; stroke-dasharray: 5.0,5.0;" x1="548" x2="548" y1="86.2969" y2="446.7578"/><line style="stroke: #A80036; stroke-width: 1.0; stroke-dasharray: 5.0,5.0;" x1="622" x2="622" y1="86.2969" y2="446.7578"/><text fill="#000000" font-family="sans-serif" font-size="14" lengthAdjust="spacingAndGlyphs" textLength="32" x="8" y="82.9951">User</text><ellipse cx="27" cy="13" fill="#FEFECE" filter="url(#f4pb92qp55qjp)" rx="8" ry="8" style="stroke: #A80036; stroke-width: 2.0;"/><path d="M27,21 L27,48 M14,29 L40,29 M27,48 L14,63 M27,48 L40,63 " fill="none" filter="url(#f4pb92qp55qjp)" style="stroke: #A80036; stroke-width: 2.0;"/><text fill="#000000" font-family="sans-serif" font-size="14" lengthAdjust="spacingAndGlyphs" textLength="32" x="8" y="458.7529">User</text><ellipse cx="27" cy="472.0547" fill="#FEFECE" filter="url(#f4pb92qp55qjp)" rx="8" ry="8" style="stroke: #A80036; stroke-width: 2.0;"/><path d="M27,480.0547 L27,507.0547 M14,488.0547 L40,488.0547 M27,507.0547 L14,522.0547 M27,507.0547 L40,522.0547 " fill="none" filter="url(#f4pb92qp55qjp)" style="stroke: #A80036; stroke-width: 2.0;"/><rect fill="#FEFECE" filter="url(#f4pb92qp55qjp)" height="30.2969" style="stroke: #A80036; stroke-width: 1.5;" width="88" x="218" y="51"/><text fill="#000000" font-family="sans-serif" font-size="14" lengthAdjust="spacingAndGlyphs" textLength="74" x="225" y="70.9951">application</text><rect fill="#FEFECE" filter="url(#f4pb92qp55qjp)" height="30.2969" style="stroke: #A80036; stroke-width: 1.5;" width="88" x="218" y="445.7578"/><text fill="#000000" font-family="sans-serif" font-size="14" lengthAdjust="spacingAndGlyphs" textLength="74" x="225" y="465.7529">application</text><rect fill="#FEFECE" filter="url(#f4pb92qp55qjp)" height="30.2969" style="stroke: #A80036; stroke-width: 1.5;" width="41" x="392.5" y="51"/><text fill="#000000" font-family="sans-serif" font-size="14" lengthAdjust="spacingAndGlyphs" textLength="27" x="399.5" y="70.9951">files</text><rect fill="#FEFECE" filter="url(#f4pb92qp55qjp)" height="30.2969" style="stroke: #A80036; stroke-width: 1.5;" width="41" x="392.5" y="445.7578"/><text fill="#000000" font-family="sans-serif" font-size="14" lengthAdjust="spacingAndGlyphs" textLength="27" x="399.5" y="465.7529">files</text><rect fill="#FEFECE" filter="url(#f4pb92qp55qjp)" height="30.2969" style="stroke: #A80036; stroke-width: 1.5;" width="56" x="518" y="51"/><text fill="#000000" font-family="sans-serif" font-size="14" lengthAdjust="spacingAndGlyphs" textLength="42" x="525" y="70.9951">image</text><rect fill="#FEFECE" filter="url(#f4pb92qp55qjp)" height="30.2969" style="stroke: #A80036; stroke-width: 1.5;" width="56" x="518" y="445.7578"/><text fill="#000000" font-family="sans-serif" font-size="14" lengthAdjust="spacingAndGlyphs" textLength="42" x="525" y="465.7529">image</text><rect fill="#FEFECE" filter="url(#f4pb92qp55qjp)" height="30.2969" style="stroke: #A80036; stroke-width: 1.5;" width="64" x="588" y="51"/><text fill="#000000" font-family="sans-serif" font-size="14" lengthAdjust="spacingAndGlyphs" textLength="50" x="595" y="70.9951">images</text><rect fill="#FEFECE" filter="url(#f4pb92qp55qjp)" height="30.2969" style="stroke: #A80036; stroke-width: 1.5;" width="64" x="588" y="445.7578"/><text fill="#000000" font-family="sans-serif" font-size="14" lengthAdjust="spacingAndGlyphs" textLength="50" x="595" y="465.7529">images</text><rect fill="#FFFFFF" filter="url(#f4pb92qp55qjp)" height="311.3281" style="stroke: #A80036; stroke-width: 1.0;" width="10" x="22" y="117.4297"/><rect fill="#FFFFFF" filter="url(#f4pb92qp55qjp)" height="341.4609" style="stroke: #A80036; stroke-width: 1.0;" width="10" x="259" y="96.2969"/><rect fill="#FFFFFF" filter="url(#f4pb92qp55qjp)" height="291.1953" style="stroke: #A80036; stroke-width: 1.0;" width="10" x="410" y="146.5625"/><rect fill="#FFFFFF" filter="url(#f4pb92qp55qjp)" height="198.7969" style="stroke: #A80036; stroke-width: 1.0;" width="10" x="543" y="238.9609"/><rect fill="#FFFFFF" filter="url(#f4pb92qp55qjp)" height="72.2656" style="stroke: #A80036; stroke-width: 1.0;" width="10" x="617" y="365.4922"/><polygon fill="#A80036" points="247,113.4297,257,117.4297,247,121.4297,251,117.4297" style="stroke: #A80036; stroke-width: 1.0;"/><line style="stroke: #A80036; stroke-width: 1.0;" x1="32" x2="253" y1="117.4297" y2="117.4297"/><text fill="#000000" font-family="sans-serif" font-size="13" lengthAdjust="spacingAndGlyphs" textLength="208" x="39" y="112.3638">ファイルのドラッグアンドドロップ</text><polygon fill="#A80036" points="398,142.5625,408,146.5625,398,150.5625,402,146.5625" style="stroke: #A80036; stroke-width: 1.0;"/><line style="stroke: #A80036; stroke-width: 1.0;" x1="269" x2="404" y1="146.5625" y2="146.5625"/><text fill="#000000" font-family="sans-serif" font-size="13" lengthAdjust="spacingAndGlyphs" textLength="78" x="276" y="141.4966">ファイル追加</text><polygon fill="#A80036" points="247,171.6953,257,175.6953,247,179.6953,251,175.6953" style="stroke: #A80036; stroke-width: 1.0;"/><line style="stroke: #A80036; stroke-width: 1.0;" x1="32" x2="253" y1="175.6953" y2="175.6953"/><text fill="#000000" font-family="sans-serif" font-size="13" lengthAdjust="spacingAndGlyphs" textLength="203" x="39" y="170.6294">ファイル一覧のファイルを1つ選択</text><polygon fill="#A80036" points="398,200.8281,408,204.8281,398,208.8281,402,204.8281" style="stroke: #A80036; stroke-width: 1.0;"/><line style="stroke: #A80036; stroke-width: 1.0;" x1="269" x2="404" y1="204.8281" y2="204.8281"/><text fill="#000000" font-family="sans-serif" font-size="13" lengthAdjust="spacingAndGlyphs" textLength="117" x="276" y="199.7622">対象ファイルを選択</text><polygon fill="#A80036" points="531,234.9609,541,238.9609,531,242.9609,535,238.9609" style="stroke: #A80036; stroke-width: 1.0;"/><line style="stroke: #A80036; stroke-width: 1.0;" x1="420" x2="537" y1="238.9609" y2="238.9609"/><text fill="#000000" font-family="sans-serif" font-size="13" lengthAdjust="spacingAndGlyphs" textLength="104" x="427" y="233.895">描画画像のセット</text><path d="M558,217.8281 L558,242.8281 L683,242.8281 L683,227.8281 L673,217.8281 L558,217.8281 " fill="#FBFB77" filter="url(#f4pb92qp55qjp)" style="stroke: #A80036; stroke-width: 1.0;"/><path d="M673,217.8281 L673,227.8281 L683,227.8281 L673,217.8281 " fill="#FBFB77" style="stroke: #A80036; stroke-width: 1.0;"/><text fill="#000000" font-family="sans-serif" font-size="13" lengthAdjust="spacingAndGlyphs" textLength="104" x="564" y="234.895">画像が描画される</text><polygon fill="#A80036" points="247,269.0938,257,273.0938,247,277.0938,251,273.0938" style="stroke: #A80036; stroke-width: 1.0;"/><line style="stroke: #A80036; stroke-width: 1.0;" x1="32" x2="253" y1="273.0938" y2="273.0938"/><text fill="#000000" font-family="sans-serif" font-size="13" lengthAdjust="spacingAndGlyphs" textLength="195" x="39" y="268.0278">トリミング位置調整ビューの操作</text><polygon fill="#A80036" points="531,298.2266,541,302.2266,531,306.2266,535,302.2266" style="stroke: #A80036; stroke-width: 1.0;"/><line style="stroke: #A80036; stroke-width: 1.0;" x1="269" x2="537" y1="302.2266" y2="302.2266"/><text fill="#000000" font-family="sans-serif" font-size="13" lengthAdjust="spacingAndGlyphs" textLength="65" x="276" y="297.1606">座標の更新</text><polygon fill="#A80036" points="247,327.3594,257,331.3594,247,335.3594,251,331.3594" style="stroke: #A80036; stroke-width: 1.0;"/><line style="stroke: #A80036; stroke-width: 1.0;" x1="32" x2="253" y1="331.3594" y2="331.3594"/><text fill="#000000" font-family="sans-serif" font-size="13" lengthAdjust="spacingAndGlyphs" textLength="130" x="39" y="326.2935">一括挿入ボタンを押下</text><polygon fill="#A80036" points="605,361.4922,615,365.4922,605,369.4922,609,365.4922" style="stroke: #A80036; stroke-width: 1.0;"/><line style="stroke: #A80036; stroke-width: 1.0;" x1="269" x2="611" y1="365.4922" y2="365.4922"/><text fill="#000000" font-family="sans-serif" font-size="13" lengthAdjust="spacingAndGlyphs" textLength="52" x="276" y="360.4263">画像追加</text><path d="M632,344.3594 L632,369.3594 L757,369.3594 L757,354.3594 L747,344.3594 L632,344.3594 " fill="#FBFB77" filter="url(#f4pb92qp55qjp)" style="stroke: #A80036; stroke-width: 1.0;"/><path d="M747,344.3594 L747,354.3594 L757,354.3594 L747,344.3594 " fill="#FBFB77" style="stroke: #A80036; stroke-width: 1.0;"/><text fill="#000000" font-family="sans-serif" font-size="13" lengthAdjust="spacingAndGlyphs" textLength="104" x="638" y="361.4263">画像が描画される</text><polygon fill="#A80036" points="247,395.625,257,399.625,247,403.625,251,399.625" style="stroke: #A80036; stroke-width: 1.0;"/><line style="stroke: #A80036; stroke-width: 1.0;" x1="32" x2="253" y1="399.625" y2="399.625"/><text fill="#000000" font-family="sans-serif" font-size="13" lengthAdjust="spacingAndGlyphs" textLength="130" x="39" y="394.5591">出力プレビューの確認</text><polygon fill="#A80036" points="247,424.7578,257,428.7578,247,432.7578,251,428.7578" style="stroke: #A80036; stroke-width: 1.0;"/><line style="stroke: #A80036; stroke-width: 1.0;" x1="27" x2="253" y1="428.7578" y2="428.7578"/><text fill="#000000" font-family="sans-serif" font-size="13" lengthAdjust="spacingAndGlyphs" textLength="26" x="34" y="423.6919">出力</text><!--MD5=[a667c58dbc0ab801c301b0573c45c273]
@startuml
actor User as user
participant application as app
participant files as f
participant image as i
participant images as ii

activate app
user -> app : ファイルのドラッグアンドドロップ
activate user
app -> f : ファイル追加
activate f
user -> app : ファイル一覧のファイルを1つ選択
app -> f : 対象ファイルを選択
f -> i : 描画画像のセット
activate i
note right
  画像が描画される
end note
user -> app : トリミング位置調整ビューの操作
app -> i : 座標の更新
user -> app : 一括挿入ボタンを押下
app -> ii : 画像追加
activate ii
note right
  画像が描画される
end note
user -> app : 出力プレビューの確認
user -> app : 出力
deactivate user
@enduml

PlantUML version 1.2019.12(Sun Nov 03 10:24:54 UTC 2019)
(GPL source distribution)
Java Runtime: OpenJDK Runtime Environment
JVM: OpenJDK 64-Bit Server VM
Java Version: 1.8.0_232-heroku-b09
Operating System: Linux
Default Encoding: UTF-8
Language: en
Country: US
--></g></svg>